<svg width="21" height="20" viewBox="0 0 21 20" xmlns="http://www.w3.org/2000/svg">
<path fill-rule="evenodd" clip-rule="evenodd" d="M10.2502 1.24927C10.4159 1.24927 10.5749 1.31512 10.6921 1.43233C10.8093 1.54954 10.8752 1.70851 10.8752 1.87427L10.8752 16.6155L14.8077 12.6818C14.925 12.5644 15.0842 12.4985 15.2502 12.4985C15.4162 12.4985 15.5753 12.5644 15.6927 12.6818C15.81 12.7991 15.876 12.9583 15.876 13.1243C15.876 13.2902 15.81 13.4494 15.6927 13.5668L10.6927 18.5668C10.6346 18.625 10.5657 18.6711 10.4897 18.7027C10.4138 18.7342 10.3324 18.7504 10.2502 18.7504C10.168 18.7504 10.0866 18.7342 10.0106 18.7027C9.93471 18.6711 9.86574 18.625 9.80769 18.5668L4.80769 13.5668C4.69033 13.4494 4.6244 13.2902 4.6244 13.1243C4.6244 12.9583 4.69033 12.7991 4.80769 12.6818C4.92505 12.5644 5.08422 12.4985 5.25019 12.4985C5.41616 12.4985 5.57533 12.5644 5.69269 12.6818L9.62519 16.6155L9.62519 1.87427C9.62519 1.70851 9.69103 1.54954 9.80825 1.43233C9.92546 1.31512 10.0844 1.24927 10.2502 1.24927Z" fill="white"/>
</svg>
