<svg width="28" height="19" viewBox="0 0 28 19" xmlns="http://www.w3.org/2000/svg">
<path fill-rule="evenodd" clip-rule="evenodd" d="M0 9.49998C0 9.23476 0.105357 8.98041 0.292893 8.79288C0.48043 8.60534 0.734784 8.49998 1 8.49998H24.586L18.292 2.20798C18.1042 2.02021 17.9987 1.76553 17.9987 1.49998C17.9987 1.23443 18.1042 0.979755 18.292 0.791981C18.4798 0.604208 18.7344 0.498718 19 0.498718C19.2656 0.498718 19.5202 0.604208 19.708 0.791981L27.708 8.79198C27.8011 8.88487 27.875 8.99522 27.9254 9.11671C27.9758 9.2382 28.0018 9.36845 28.0018 9.49998C28.0018 9.63152 27.9758 9.76176 27.9254 9.88325C27.875 10.0047 27.8011 10.1151 27.708 10.208L19.708 18.208C19.5202 18.3958 19.2656 18.5012 19 18.5012C18.7344 18.5012 18.4798 18.3958 18.292 18.208C18.1042 18.0202 17.9987 17.7655 17.9987 17.5C17.9987 17.2344 18.1042 16.9798 18.292 16.792L24.586 10.5H1C0.734784 10.5 0.48043 10.3946 0.292893 10.2071C0.105357 10.0196 0 9.7652 0 9.49998Z"/>
</svg>
