<svg width="16" height="17" viewBox="0 0 16 17" xmlns="http://www.w3.org/2000/svg">
<g clip-path="url(#clip0_325_11241)">
<path d="M10.8541 7.64604C10.9007 7.69248 10.9376 7.74766 10.9629 7.80841C10.9881 7.86915 11.001 7.93427 11.001 8.00004C11.001 8.06581 10.9881 8.13093 10.9629 8.19167C10.9376 8.25242 10.9007 8.30759 10.8541 8.35404L7.85414 11.354C7.8077 11.4006 7.75252 11.4375 7.69178 11.4628C7.63103 11.488 7.56591 11.5009 7.50014 11.5009C7.43438 11.5009 7.36925 11.488 7.30851 11.4628C7.24776 11.4375 7.19259 11.4006 7.14614 11.354L5.64614 9.85404C5.59966 9.80755 5.56278 9.75236 5.53762 9.69162C5.51246 9.63088 5.49951 9.56578 5.49951 9.50004C5.49951 9.4343 5.51246 9.36919 5.53762 9.30846C5.56278 9.24772 5.59966 9.19253 5.64614 9.14604C5.74003 9.05215 5.86737 8.99941 6.00014 8.99941C6.06589 8.99941 6.13099 9.01236 6.19173 9.03752C6.25247 9.06267 6.30766 9.09955 6.35414 9.14604L7.50014 10.293L10.1461 7.64604C10.1926 7.59948 10.2478 7.56253 10.3085 7.53733C10.3693 7.51212 10.4344 7.49915 10.5001 7.49915C10.5659 7.49915 10.631 7.51212 10.6918 7.53733C10.7525 7.56253 10.8077 7.59948 10.8541 7.64604Z" fill="#A1A8A6"/>
<path d="M3.5 0.5C3.63261 0.5 3.75979 0.552678 3.85355 0.646447C3.94732 0.740215 4 0.867392 4 1V1.5H12V1C12 0.867392 12.0527 0.740215 12.1464 0.646447C12.2402 0.552678 12.3674 0.5 12.5 0.5C12.6326 0.5 12.7598 0.552678 12.8536 0.646447C12.9473 0.740215 13 0.867392 13 1V1.5H14C14.5304 1.5 15.0391 1.71071 15.4142 2.08579C15.7893 2.46086 16 2.96957 16 3.5V14.5C16 15.0304 15.7893 15.5391 15.4142 15.9142C15.0391 16.2893 14.5304 16.5 14 16.5H2C1.46957 16.5 0.960859 16.2893 0.585786 15.9142C0.210714 15.5391 0 15.0304 0 14.5V3.5C0 2.96957 0.210714 2.46086 0.585786 2.08579C0.960859 1.71071 1.46957 1.5 2 1.5H3V1C3 0.867392 3.05268 0.740215 3.14645 0.646447C3.24021 0.552678 3.36739 0.5 3.5 0.5ZM1 4.5V14.5C1 14.7652 1.10536 15.0196 1.29289 15.2071C1.48043 15.3946 1.73478 15.5 2 15.5H14C14.2652 15.5 14.5196 15.3946 14.7071 15.2071C14.8946 15.0196 15 14.7652 15 14.5V4.5H1Z" fill="#A1A8A6"/>
</g>
<defs>
<clipPath id="clip0_325_11241">
<rect width="16" height="16" fill="white" transform="translate(0 0.5)"/>
</clipPath>
</defs>
</svg>
