<svg width="20" height="20" viewBox="0 0 20 20" xmlns="http://www.w3.org/2000/svg">
<path fill-rule="evenodd" clip-rule="evenodd" d="M13.5676 10.1825C13.6258 10.2406 13.6719 10.3095 13.7034 10.3855C13.735 10.4614 13.7512 10.5428 13.7512 10.625C13.7512 10.7072 13.735 10.7886 13.7034 10.8645C13.6719 10.9405 13.6258 11.0094 13.5676 11.0675L9.81756 14.8175C9.7595 14.8757 9.69053 14.9219 9.6146 14.9534C9.53867 14.9849 9.45727 15.0011 9.37506 15.0011C9.29285 15.0011 9.21145 14.9849 9.13551 14.9534C9.05958 14.9219 8.99061 14.8757 8.93256 14.8175L7.05756 12.9425C6.99945 12.8844 6.95335 12.8154 6.9219 12.7395C6.89045 12.6636 6.87427 12.5822 6.87427 12.5C6.87427 12.4178 6.89045 12.3364 6.9219 12.2605C6.95335 12.1846 6.99945 12.1156 7.05756 12.0575C7.17492 11.9401 7.33409 11.8742 7.50006 11.8742C7.58224 11.8742 7.66361 11.8904 7.73954 11.9218C7.81546 11.9533 7.88445 11.9994 7.94256 12.0575L9.37506 13.4913L12.6826 10.1825C12.7406 10.1243 12.8096 10.0781 12.8855 10.0466C12.9614 10.0151 13.0428 9.99889 13.1251 9.99889C13.2073 9.99889 13.2887 10.0151 13.3646 10.0466C13.4405 10.0781 13.5095 10.1243 13.5676 10.1825Z" fill="black"/>
<path d="M10 1.25C10.8288 1.25 11.6237 1.57924 12.2097 2.16529C12.7958 2.75134 13.125 3.5462 13.125 4.375V5H6.875V4.375C6.875 3.5462 7.20424 2.75134 7.79029 2.16529C8.37634 1.57924 9.1712 1.25 10 1.25ZM14.375 5V4.375C14.375 3.21468 13.9141 2.10188 13.0936 1.28141C12.2731 0.460936 11.1603 0 10 0C8.83968 0 7.72688 0.460936 6.90641 1.28141C6.08594 2.10188 5.625 3.21468 5.625 4.375V5H1.25V17.5C1.25 18.163 1.51339 18.7989 1.98223 19.2678C2.45107 19.7366 3.08696 20 3.75 20H16.25C16.913 20 17.5489 19.7366 18.0178 19.2678C18.4866 18.7989 18.75 18.163 18.75 17.5V5H14.375ZM2.5 6.25H17.5V17.5C17.5 17.8315 17.3683 18.1495 17.1339 18.3839C16.8995 18.6183 16.5815 18.75 16.25 18.75H3.75C3.41848 18.75 3.10054 18.6183 2.86612 18.3839C2.6317 18.1495 2.5 17.8315 2.5 17.5V6.25Z" fill="black"/>
</svg>
