<svg width="33" height="32" viewBox="0 0 33 32" fill="none" xmlns="http://www.w3.org/2000/svg">
<path d="M30.5387 9.33331H27.8333V7.98065C27.8333 7.62331 27.5433 7.33331 27.186 7.33331H23.0513C20.9867 7.33331 19.3027 8.94531 19.1787 10.9793C19.066 8.94731 17.3873 7.33331 15.3273 7.33331H11.1473C10.79 7.33331 10.5 7.62331 10.5 7.98065V9.33331H7.79467C7.08 9.33331 6.5 9.91331 6.5 10.628V28.7046C6.5 29.42 7.08 30 7.79467 30H30.538C31.2533 30 31.8333 29.42 31.8333 28.7053V10.628C31.8333 9.91331 31.2533 9.33331 30.5387 9.33331Z" fill="#D5BDD8"/>
<path d="M7.11 27.6667H4.83333C4.09667 27.6667 3.5 27.07 3.5 26.3334V7.63869C3.5 6.90203 4.09667 6.30536 4.83333 6.30536H7.5" stroke="black" stroke-width="2" stroke-miterlimit="10" stroke-linecap="round" stroke-linejoin="round"/>
<path d="M28.1669 6.30536C28.9036 6.30536 29.5002 6.90203 29.5002 7.63869V26.3334C29.5002 27.07 28.9036 27.6667 28.1669 27.6667H11.9369" stroke="black" stroke-width="2" stroke-miterlimit="10" stroke-linecap="round" stroke-linejoin="round"/>
<path d="M25.5003 22V23.05C25.5003 23.418 25.2017 23.7167 24.8337 23.7167H20.5003C18.6363 23.7167 17.0703 24.9913 16.6263 26.7167" stroke="black" stroke-width="2" stroke-miterlimit="10" stroke-linecap="round" stroke-linejoin="round"/>
<path d="M16.5 26.7166V8.3833C16.5 6.17397 18.2907 4.3833 20.5 4.3833H24.8333C25.2013 4.3833 25.5 4.68197 25.5 5.04997V17.4893" stroke="black" stroke-width="2" stroke-miterlimit="10" stroke-linecap="round" stroke-linejoin="round"/>
<path d="M7.5 13.4326V23.05C7.5 23.418 7.79867 23.7166 8.16667 23.7166H12.5C14.364 23.7166 15.93 24.9913 16.374 26.7166" stroke="black" stroke-width="2" stroke-miterlimit="10" stroke-linecap="round" stroke-linejoin="round"/>
<path d="M16.5 8.3833C16.5 6.17397 14.7093 4.3833 12.5 4.3833H8.16667C7.79867 4.3833 7.5 4.68197 7.5 5.04997V9.4893" stroke="black" stroke-width="2" stroke-miterlimit="10" stroke-linecap="round" stroke-linejoin="round"/>
</svg>
