<svg width="17" height="17" viewBox="0 0 17 17" fill="none" xmlns="http://www.w3.org/2000/svg">
<path d="M8.25 15.5C6.39348 15.5 4.61301 14.7625 3.30025 13.4497C1.9875 12.137 1.25 10.3565 1.25 8.5C1.25 6.64348 1.9875 4.86301 3.30025 3.55025C4.61301 2.2375 6.39348 1.5 8.25 1.5C10.1065 1.5 11.887 2.2375 13.1997 3.55025C14.5125 4.86301 15.25 6.64348 15.25 8.5C15.25 10.3565 14.5125 12.137 13.1997 13.4497C11.887 14.7625 10.1065 15.5 8.25 15.5ZM8.25 16.5C10.3717 16.5 12.4066 15.6571 13.9069 14.1569C15.4071 12.6566 16.25 10.6217 16.25 8.5C16.25 6.37827 15.4071 4.34344 13.9069 2.84315C12.4066 1.34285 10.3717 0.5 8.25 0.5C6.12827 0.5 4.09344 1.34285 2.59315 2.84315C1.09285 4.34344 0.25 6.37827 0.25 8.5C0.25 10.6217 1.09285 12.6566 2.59315 14.1569C4.09344 15.6571 6.12827 16.5 8.25 16.5Z" fill="#737B79"/>
<path d="M11.2199 5.47001L11.1999 5.49201L7.72685 9.91701L5.63385 7.82301C5.49168 7.69053 5.30363 7.6184 5.10933 7.62183C4.91503 7.62526 4.72964 7.70397 4.59223 7.84138C4.45482 7.9788 4.3761 8.16418 4.37268 8.35848C4.36925 8.55278 4.44137 8.74083 4.57385 8.88301L7.21985 11.53C7.29113 11.6012 7.37601 11.6572 7.46943 11.6949C7.56285 11.7325 7.6629 11.7509 7.7636 11.7491C7.86429 11.7472 7.96359 11.7251 8.05555 11.684C8.14751 11.6429 8.23025 11.5838 8.29885 11.51L12.2909 6.52001C12.4268 6.37734 12.5011 6.1869 12.4977 5.98987C12.4944 5.79285 12.4136 5.60505 12.2729 5.4671C12.1322 5.32915 11.9428 5.25211 11.7458 5.25266C11.5487 5.2532 11.3598 5.33128 11.2199 5.47001Z" fill="#737B79"/>
</svg>
