<svg width="24" height="24" viewBox="0 0 24 24" fill="none" xmlns="http://www.w3.org/2000/svg">
<path d="M21.75 12.5C21.75 8.2 18.3 4.75 14 4.75C9.7 4.75 6.25 8.2 6.25 12.5C6.25 14.4 6.95 16.15 8.1 17.55C8.1 17.55 11.8 21.75 12.95 22.85C13.55 23.4 14.45 23.4 15 22.85C16.35 21.55 19.85 17.55 19.85 17.55C21.05 16.15 21.75 14.4 21.75 12.5Z" fill="#F1D2F5"/>
<path d="M12 12.75C13.2426 12.75 14.25 11.7426 14.25 10.5C14.25 9.25736 13.2426 8.25 12 8.25C10.7574 8.25 9.75 9.25736 9.75 10.5C9.75 11.7426 10.7574 12.75 12 12.75Z" stroke="black" stroke-width="1.5"/>
<path d="M17.8999 15.55C19.0499 14.2 19.7499 12.45 19.7499 10.5C19.7499 6.2 16.2999 2.75 11.9999 2.75C10.4999 2.75 9.0999 3.2 7.8999 3.9" stroke="black" stroke-width="1.5" stroke-linecap="round"/>
<path d="M5.2 6.80005C4.6 7.90005 4.25 9.15005 4.25 10.5C4.25 12.4 4.95 14.15 6.1 15.55C6.1 15.55 9.8 19.75 10.95 20.85C11.55 21.4 12.45 21.4 13 20.85C13.75 20.15 14.6 19.2 15.7 17.95" stroke="black" stroke-width="1.5" stroke-linecap="round"/>
</svg>
