<svg width="32" height="32" viewBox="0 0 32 32" fill="none" xmlns="http://www.w3.org/2000/svg">
<path d="M26.7473 29.3333H10.586C9.158 29.3333 8 28.1753 8 26.7473V10.586C8 9.158 9.158 8 10.586 8H26.7473C28.1753 8 29.3333 9.158 29.3333 10.586V26.7473C29.3333 28.1753 28.1753 29.3333 26.7473 29.3333Z" fill="#F1D2F5"/>
<path d="M27 24.3328C27 25.8055 25.806 26.9995 24.3333 26.9995H7.66667C6.194 26.9995 5 25.8055 5 24.3328V13.1201" stroke="#68486A" stroke-width="2" stroke-miterlimit="10" stroke-linecap="round" stroke-linejoin="round"/>
<path d="M5 8.41133V7.66667C5 6.194 6.194 5 7.66667 5H24.3333C25.806 5 27 6.194 27 7.66667V20.06" stroke="#68486A" stroke-width="2" stroke-miterlimit="10" stroke-linecap="round" stroke-linejoin="round"/>
<path d="M15.667 9H23.0003V16.3333" stroke="#68486A" stroke-width="2" stroke-miterlimit="10" stroke-linecap="round" stroke-linejoin="round"/>
<path d="M23 9L11 21" stroke="#68486A" stroke-width="2" stroke-miterlimit="10" stroke-linecap="round" stroke-linejoin="round"/>
</svg>
