<svg width="32" height="32" viewBox="0 0 32 32" fill="none" xmlns="http://www.w3.org/2000/svg">
<path d="M9 16.9997V28.9997C9 30.1043 9.89533 30.9997 11 30.9997H26.3333C27.438 30.9997 28.3333 30.1043 28.3333 28.9997V14.9997L19.6667 6.33301H11C9.89533 6.33301 9 7.22834 9 8.33301V11.6663V16.9997Z" fill="#B8E6D8"/>
<path d="M25.6663 19.0003V12.3337H18.9997C17.895 12.3337 16.9997 11.4383 16.9997 10.3337V3.66699H8.33301C7.22834 3.66699 6.33301 4.56233 6.33301 5.66699V9.00033" stroke="#077964" stroke-width="2" stroke-miterlimit="10" stroke-linecap="round" stroke-linejoin="round"/>
<path d="M6.33301 14.333V26.333C6.33301 27.4377 7.22834 28.333 8.33301 28.333H23.6663C24.771 28.333 25.6663 27.4377 25.6663 26.333V24.333" stroke="#077964" stroke-width="2" stroke-miterlimit="10" stroke-linecap="round" stroke-linejoin="round"/>
<path d="M25.6667 12.3337L17 3.66699" stroke="#077964" stroke-width="2" stroke-miterlimit="10" stroke-linecap="round" stroke-linejoin="round"/>
<path d="M12.3743 25.041C12.1597 25.215 11.923 25.3337 11.667 25.3337C11.411 25.3337 11.155 25.2363 10.9597 25.041C10.7643 24.8457 10.667 24.5897 10.667 24.3337C10.667 24.0777 10.7583 23.815 10.9597 23.6263C11.9797 22.6737 15.5697 20.667 20.3337 20.667C20.8857 20.667 21.3337 21.115 21.3337 21.667C21.3337 22.219 20.8857 22.667 20.3337 22.667C17.3337 22.667 14.0003 18.2437 14.0003 15.667C14.0003 15.115 14.4483 14.667 15.0003 14.667C15.5523 14.667 16.0003 15.115 16.0003 15.667C16.0003 20.0003 13.313 24.2783 12.3743 25.041Z" stroke="#077964" stroke-width="1.33333" stroke-miterlimit="10"/>
</svg>
