<svg width="24" height="25" viewBox="0 0 24 25" fill="none" xmlns="http://www.w3.org/2000/svg">
<g clip-path="url(#clip0_299_23932)">
<path d="M17.6124 16.016C19.0648 14.034 19.7154 11.5767 19.4338 9.13569C19.1523 6.69468 17.9595 4.44998 16.094 2.85066C14.2286 1.25135 11.828 0.415373 9.37265 0.509983C6.91728 0.604592 4.58817 1.62281 2.8513 3.36093C1.11442 5.09905 0.0978694 7.42888 0.00501667 9.88432C-0.0878361 12.3398 0.749858 14.7397 2.35051 16.604C3.95115 18.4684 6.19671 19.6596 8.63792 19.9393C11.0791 20.2191 13.536 19.5668 15.5169 18.113H15.5154C15.5594 18.173 15.6084 18.2305 15.6624 18.2855L21.4374 24.0605C21.7187 24.3419 22.1002 24.5001 22.4981 24.5003C22.896 24.5004 23.2777 24.3425 23.5591 24.0612C23.8406 23.78 23.9988 23.3984 23.9989 23.0005C23.9991 22.6026 23.8412 22.2209 23.5599 21.9395L17.7849 16.1645C17.7313 16.1102 17.6736 16.0615 17.6124 16.016ZM17.9994 10.25C17.9994 11.3334 17.786 12.4062 17.3714 13.4071C16.9568 14.408 16.3491 15.3175 15.583 16.0836C14.8169 16.8497 13.9075 17.4574 12.9065 17.872C11.9056 18.2866 10.8328 18.5 9.74939 18.5C8.66599 18.5 7.59319 18.2866 6.59226 17.872C5.59132 17.4574 4.68185 16.8497 3.91576 16.0836C3.14968 15.3175 2.54199 14.408 2.12739 13.4071C1.71279 12.4062 1.49939 11.3334 1.49939 10.25C1.49939 8.06193 2.36859 5.96351 3.91576 4.41634C5.46294 2.86916 7.56136 1.99997 9.74939 1.99997C11.9374 1.99997 14.0358 2.86916 15.583 4.41634C17.1302 5.96351 17.9994 8.06193 17.9994 10.25Z" fill="#A1A8A6"/>
</g>
<defs>
<clipPath id="clip0_299_23932">
<rect width="24" height="24" fill="white" transform="translate(0 0.5)"/>
</clipPath>
</defs>
</svg>
