<svg width="32" height="32" viewBox="0 0 32 32" fill="none" xmlns="http://www.w3.org/2000/svg">
<path d="M18.6664 6.33331C11.8664 6.33331 6.33303 11.8666 6.33303 18.6666C6.33303 20.8666 6.93303 22.8666 7.86636 24.6666L6.33303 30.1333C6.1997 30.6666 6.66636 31.0666 7.13303 30.9333L12.5997 29.4C14.3997 30.4 16.3997 30.9333 18.5997 30.9333C25.3997 30.9333 30.933 25.4 30.933 18.6C30.9997 11.8666 25.4664 6.33331 18.6664 6.33331Z" fill="#F6E85E"/>
<path d="M28.1333 13.6667C27 8.00002 22 3.66669 16 3.66669C9.19999 3.66669 3.66666 9.20002 3.66666 16C3.66666 16.6667 3.73332 17.2667 3.79999 17.9334" stroke="black" stroke-width="2" stroke-miterlimit="10" stroke-linecap="round" stroke-linejoin="round"/>
<path d="M5.20024 22L3.6669 27.4666C3.53357 28 4.00024 28.4666 4.53357 28.3333L10.0002 26.8C11.8002 27.8 13.8002 28.3333 16.0002 28.3333C21.8002 28.3333 26.6669 24.3333 28.0002 18.9333" stroke="black" stroke-width="2" stroke-miterlimit="10" stroke-linecap="round" stroke-linejoin="round"/>
</svg>
