<svg width="33" height="32" viewBox="0 0 33 32" fill="none" xmlns="http://www.w3.org/2000/svg">
<path d="M13.8773 29.7346C13.8773 29.2199 13.548 28.7626 13.0593 28.5999L9.72063 27.4873C8.98797 27.2433 8.4933 26.5573 8.4933 25.7846V22.6506L6.10263 21.8146C5.51663 21.6099 5.3093 20.8873 5.6973 20.4026L8.56197 16.8219C9.04597 11.5046 13.3706 7.33661 18.6633 7.33661C24.28 7.33661 28.8333 12.0239 28.8333 17.8059C28.8333 20.8479 27.5686 23.5819 25.554 25.4926C24.6226 26.3759 24.048 27.5699 24.048 28.8539V29.7359C24.048 30.2506 23.6306 30.6679 23.116 30.6679H14.8093C14.2946 30.6666 13.8773 30.2493 13.8773 29.7346Z" fill="#F6E85E"/>
<path d="M13.3931 28.3333H12.2758C11.7538 28.3333 11.3304 27.91 11.3304 27.388C11.3304 26.866 10.9964 26.402 10.5011 26.2373L7.11445 25.1087C6.37111 24.8607 5.86978 24.1653 5.86978 23.382V20.2033L3.44511 19.3553C2.85045 19.1467 2.63978 18.414 3.03311 17.922L5.93911 14.29C6.39245 9.31 10.1664 5.324 14.9684 4.742" stroke="black" stroke-width="2" stroke-miterlimit="10" stroke-linecap="round" stroke-linejoin="round"/>
<path d="M26.2675 17.5353C25.8108 19.708 24.7061 21.6307 23.1735 23.084C22.2288 23.98 21.6455 25.1913 21.6455 26.4933V27.388C21.6455 27.91 21.2221 28.3333 20.7001 28.3333H17.6068" stroke="black" stroke-width="2" stroke-miterlimit="10" stroke-linecap="round" stroke-linejoin="round"/>
<path d="M24.6667 1.66602C21.2613 1.66602 18.5 4.42668 18.5 7.83268C18.5 8.92135 18.7847 9.94268 19.28 10.8307L18.5133 13.5767C18.4433 13.8267 18.6733 14.0573 18.924 13.9873L21.6713 13.2207C22.5587 13.7153 23.5793 13.9993 24.6667 13.9993C28.072 13.9993 30.8333 11.238 30.8333 7.83268C30.8333 6.63802 30.4933 5.52202 29.9053 4.57735" stroke="black" stroke-width="2" stroke-miterlimit="10" stroke-linecap="round" stroke-linejoin="round"/>
</svg>
