<svg width="32" height="32" viewBox="0 0 32 32" fill="none" xmlns="http://www.w3.org/2000/svg">
<path d="M31.7333 18C31.7333 16.4666 30.6667 15.1333 29.2 14.8V9.39995C29.2 8.46662 28.2667 7.79995 27.4 8.13329L10 14H5.46667C4.66667 14 4 14.6666 4 15.4666V20.5333C4 21.3333 4.66667 22 5.46667 22H10L27.4667 27.8666C28.3333 28.2 29.2667 27.5333 29.2667 26.6V21.2C30.6667 20.8666 31.7333 19.5333 31.7333 18Z" fill="#C2D16E"/>
<path d="M19.4669 23.2001C18.8002 25.4667 16.4002 26.8001 14.0669 26.1334C11.8002 25.4667 10.4669 23.0667 11.1336 20.7334" stroke="black" stroke-width="2"/>
<path d="M27.4668 12V18.6667C29.2001 18.6 30.6668 17.1333 30.6668 15.3333C30.6668 13.5333 29.2668 12.1333 27.4668 12Z" fill="black"/>
<path d="M18.6 7.93329L7.66669 11.6666" stroke="black" stroke-width="2" stroke-linecap="round" stroke-linejoin="round"/>
<path d="M16.2669 21.9333L25.2669 25.0666C26.1336 25.3333 27.0669 24.7333 27.0669 23.8V6.86662C27.0669 5.93328 26.1336 5.33328 25.2669 5.59995L22.3336 6.59995" stroke="black" stroke-width="2" stroke-linecap="round" stroke-linejoin="round"/>
<path d="M7.66669 15.5334V19.0001L12.3334 20.6001" stroke="black" stroke-width="2" stroke-linecap="round" stroke-linejoin="round"/>
<path d="M7.66665 19H3.66665C2.93331 19 2.33331 18.4 2.33331 17.6667V13C2.33331 12.2667 2.93331 11.6667 3.66665 11.6667H7.66665" stroke="black" stroke-width="2" stroke-linecap="round" stroke-linejoin="round"/>
</svg>
