<svg width="187" height="81" viewBox="0 0 187 81" fill="none" xmlns="http://www.w3.org/2000/svg">
<path d="M79.5877 2.06206V0.162304C79.9415 0.162304 81.1737 0.198658 83.2844 0.270542C84.3157 0.306877 85.7796 0.324253 87.6744 0.324253C89.2919 0.324253 90.6778 0.290279 91.8328 0.221558C93.7434 0.136246 95.3223 0.092804 96.5703 0.092804C98.9882 0.092804 100.798 0.267361 101.999 0.614925C103.201 0.96328 104.225 1.68606 105.072 2.78405C105.919 3.88203 106.343 5.21938 106.343 6.79684C106.343 8.66816 105.765 10.3696 104.61 11.9005C103.455 13.4314 101.676 14.6447 99.2734 15.542C99.6579 16.2316 100.097 16.937 100.59 17.6574C101.083 18.3771 101.372 18.8147 101.457 18.9671C101.541 19.1211 101.63 19.2665 101.722 19.4047L105.304 24.7612C106.259 26.187 106.774 26.9532 106.851 27.0598C108.007 28.5931 108.715 29.4975 108.978 29.7732C109.239 30.0489 109.494 30.2409 109.739 30.3483C109.986 30.4549 110.471 30.5165 111.195 30.5323V32.5703C108.823 32.5087 107.106 32.4779 106.043 32.4779C104.811 32.4779 103.585 32.5087 102.37 32.5703C102.292 32.2306 102.107 31.7907 101.814 31.2504L96.8704 23.0731C95.4531 20.7255 94.2516 18.8802 93.2659 17.5358C92.7727 16.8565 92.2953 16.347 91.8328 16.0073L92.0873 15.2434C93.9356 15.3051 95.3294 15.1147 96.2693 14.6739C97.2092 14.2331 98.0026 13.444 98.6494 12.3073C99.2963 11.1698 99.6193 9.89728 99.6193 8.48965C99.6193 7.06621 99.2805 5.88289 98.603 4.93894C97.9246 3.99499 97.0855 3.33779 96.0841 2.96653C95.4381 2.73429 94.2823 2.61817 92.6191 2.61817C91.8801 2.61817 91.1474 2.67979 90.4241 2.80302C90.3776 3.35912 90.3319 4.61033 90.2854 6.5559C90.1925 10.9313 90.1468 13.8524 90.1468 15.3209C90.1468 17.6401 90.1696 20.0983 90.2161 22.6947C90.2775 25.8789 90.3232 27.6878 90.3547 28.1207C90.4012 28.9865 90.4855 29.5505 90.6085 29.8127C90.6699 29.9367 90.7708 30.0489 90.9094 30.1492C91.0473 30.2503 91.271 30.3309 91.5791 30.3925C91.8872 30.4549 92.7806 30.5007 94.2594 30.5323V32.5703C91.6256 32.4621 88.9602 32.4084 86.2649 32.4084C83.8619 32.4084 81.6362 32.4621 79.5877 32.5703V30.5323C81.3439 30.4699 82.3831 30.3854 82.7069 30.2764C82.8913 30.2306 83.026 30.1532 83.1111 30.0449C83.1962 29.9375 83.2616 29.7211 83.3073 29.3956C83.4152 28.7929 83.4924 27.8814 83.5389 26.6601L83.7241 19.8905V11.2891L83.6082 6.39714C83.5767 4.46499 83.4853 3.30618 83.3317 2.91991C83.2553 2.75008 83.141 2.61817 82.9874 2.52575C82.6202 2.34011 81.4865 2.18608 79.5877 2.06206ZM54.3279 32.5703V31.3199C55.2521 30.887 56.0068 30.4391 56.5922 29.9754C56.6844 29.3277 56.7616 28.2771 56.8231 26.8252C56.9468 24.1695 57.0082 22.2382 57.0082 21.0343V10.6098C57.0082 10.2085 56.9854 8.70292 56.9389 6.09224C56.8924 4.34731 56.7845 3.28169 56.6151 2.89621C56.5379 2.74139 56.4228 2.62606 56.2684 2.54865C55.8532 2.36301 54.7439 2.224 52.942 2.13158V0.347946L58.3019 0.308437C59.3647 0.303699 60.3819 0.301327 61.3517 0.301327C63.4624 0.301327 65.8111 0.278431 68.3992 0.231827L73.0894 0.116501C73.6441 0.116501 74.7676 0.147312 76.4623 0.208927C76.6167 0.208927 76.8704 0.254734 77.2249 0.347946L77.3872 0.648891L76.9476 3.98474C76.9318 4.21618 76.8554 5.32838 76.7167 7.32056H74.9141C74.8834 5.49821 74.814 4.37889 74.7069 3.96181C74.6454 3.74537 74.5533 3.59057 74.4304 3.49815C74.2302 3.35912 73.6157 3.23588 72.586 3.12766C71.0638 2.95783 69.5731 2.87252 68.1132 2.87252C66.7447 2.87252 65.3462 2.92703 63.9162 3.03446C63.7004 4.7944 63.5932 7.02828 63.5932 9.73691V14.5246C64.6379 14.602 65.7283 14.6407 66.866 14.6407C67.219 14.6407 68.4946 14.6099 70.6919 14.5483C71.5215 14.5325 72.0092 14.4788 72.155 14.3856C72.3008 14.2932 72.4126 14.1312 72.489 13.899C72.6734 13.3129 72.7805 12.3318 72.8121 10.9573H74.6833L74.5674 16.0539L74.6833 21.1268H72.8121C72.827 19.3352 72.7104 18.2309 72.4623 17.8138C72.2747 17.5058 71.9407 17.3122 71.4585 17.2348C70.3847 17.065 69.0074 16.9805 67.3277 16.9805C65.8182 16.9805 64.5733 17.035 63.5932 17.1424V26.8568C63.5932 27.9406 63.6161 28.8727 63.6626 29.6516C64.9082 29.7598 66.3839 29.8135 68.0904 29.8135C69.7512 29.8135 71.2844 29.7598 72.6915 29.6516C74.0987 29.5433 74.9629 29.3893 75.2868 29.1879C75.3939 29.127 75.494 28.9872 75.5862 28.7708C75.8627 28.0299 76.155 26.6246 76.4623 24.555H78.3571C78.0183 27.6128 77.8489 30.1303 77.8489 32.1074L77.5487 32.4084C76.5623 32.5166 75.1607 32.5703 73.3431 32.5703L69.6236 32.489C65.9576 32.4352 63.4317 32.4084 62.0451 32.4084C61.6755 32.4084 59.1032 32.4621 54.3279 32.5703ZM50.931 0.162304V2.20108C49.3655 2.24689 48.4358 2.30458 48.1411 2.37409C47.8465 2.4444 47.6377 2.52892 47.514 2.62923C47.3895 2.72955 47.3044 2.85751 47.2587 3.01154C47.15 3.27379 47.0728 3.77618 47.0255 4.51713C46.9948 4.9192 46.9719 5.67517 46.957 6.78737C46.8947 10.5869 46.864 12.6328 46.864 12.9266V22.2619L46.9333 26.5006C46.9333 28.0915 47.0106 29.1263 47.1666 29.605C47.228 29.8214 47.332 29.9873 47.4793 30.1034C47.6267 30.2187 47.8591 30.3111 48.1766 30.3807C48.4949 30.451 49.4128 30.5007 50.931 30.5315V32.5703C48.4201 32.4621 45.7397 32.4084 42.89 32.4084C40.4098 32.4084 38.1998 32.4621 36.2593 32.5703V30.5315C37.861 30.4699 38.7852 30.4154 39.0318 30.3696C39.3556 30.308 39.5746 30.2227 39.6905 30.1144C39.8055 30.007 39.8788 29.883 39.9095 29.744C39.956 29.5583 40.0174 28.8332 40.0946 27.5662C40.2175 25.713 40.279 23.9989 40.279 22.4238V12.741C40.279 9.6682 40.264 7.69104 40.2333 6.81107C40.1561 4.8497 40.0639 3.62138 39.956 3.12689C39.9095 2.92704 39.8362 2.77221 39.7369 2.66399C39.6361 2.55656 39.451 2.4673 39.1815 2.39779C38.912 2.32828 37.9375 2.26269 36.2593 2.20108V0.162304C38.1998 0.270523 40.4255 0.324253 42.9365 0.324253C45.7555 0.324253 48.4201 0.270523 50.931 0.162304ZM10.1887 20.0383C11.6392 20.0849 13.2827 20.1078 15.1192 20.1078C16.8943 20.1078 18.4834 20.0849 19.8882 20.0383L14.9427 8.06704L10.1887 20.0383ZM0 32.5703V30.6477C1.2472 30.5552 1.99016 30.4739 2.22967 30.4044C2.46839 30.3348 2.67167 30.2274 2.84185 30.0805C3.01124 29.9336 3.18456 29.7021 3.36183 29.3853C3.53832 29.0694 4.06619 27.8908 4.94466 25.8528C5.3449 24.8955 6.11466 23.0028 7.2547 20.1773L13.285 5.25886L15.3185 0.00038147H18.5992L28.9274 24.1845L30.3597 27.3584L31.2839 29.4896C31.4375 29.7677 31.5841 29.9683 31.7235 30.0923C31.8614 30.2156 32.019 30.308 32.1971 30.3696C32.3735 30.432 32.8242 30.4857 33.5482 30.5323C33.7791 30.5631 34.1179 30.6018 34.5646 30.6477V32.5703L28.1442 32.4084L20.0355 32.5703V30.6477C21.8988 30.571 22.9506 30.4675 23.1893 30.3364C23.4281 30.2053 23.5478 29.9857 23.5478 29.6776C23.5478 29.2929 23.3698 28.6618 23.016 27.7834L21.0329 22.7026H9.12037L8.10718 25.4737C7.33979 27.5993 6.9561 28.9232 6.9561 29.447C6.9561 29.8159 7.07901 30.0781 7.32482 30.2322C7.69276 30.4478 8.7934 30.5868 10.626 30.6477V32.5703L5.29763 32.4084L0 32.5703Z" fill="#094562"/>
<path d="M178.98 63.4564V63.0101C179.314 62.9163 179.538 62.7744 179.656 62.5868C179.773 62.3997 179.831 61.9553 179.831 61.254V53.8643C179.831 53.3531 179.757 53.0398 179.607 52.9273C179.46 52.8149 179.073 52.7397 178.445 52.697V52.193C178.878 52.2152 179.308 52.2315 179.736 52.2447C180.166 52.2585 180.6 52.2634 181.043 52.2634C182.577 52.2634 184.088 52.2447 185.572 52.2098C185.823 52.199 185.97 52.193 186.011 52.193C186.211 52.193 186.356 52.2291 186.448 52.2958C186.545 52.3626 186.59 52.472 186.59 52.6176C186.59 52.6326 186.584 52.694 186.573 52.804C186.517 53.4439 186.489 54.0923 186.489 54.7508H186.051C186.035 54.322 186.005 53.9876 185.96 53.7519C185.917 53.5137 185.848 53.3267 185.754 53.1901C185.509 53.0909 185.166 53.0187 184.729 52.9706C184.291 52.9249 183.649 52.9003 182.803 52.9003C182.387 52.9003 182.088 52.9033 181.91 52.9111C181.727 52.9189 181.567 52.9357 181.425 52.9544C181.397 53.4151 181.375 53.7332 181.364 53.907C181.354 54.0845 181.348 54.2204 181.348 54.3196V57.0188C181.348 57.1662 181.369 57.26 181.415 57.3045C181.46 57.3502 181.559 57.3724 181.717 57.3724L183.22 57.3394C184.116 57.3177 184.654 57.2413 184.83 57.1018C185.009 56.9617 185.097 56.6706 185.097 56.2261V55.9206L185.599 55.929C185.584 56.4053 185.572 56.7692 185.57 57.0212C185.567 57.275 185.567 57.5174 185.567 57.7387C185.567 57.9492 185.567 58.1777 185.57 58.4267C185.572 58.6727 185.584 59.0504 185.599 59.5508H185.097C185.097 59.5087 185.1 59.4485 185.106 59.3746C185.111 59.2994 185.113 59.2459 185.113 59.214C185.113 58.7365 185.023 58.4267 184.844 58.2818C184.662 58.135 184.125 58.0514 183.224 58.0304L181.717 58.0153C181.559 58.0153 181.46 58.0358 181.415 58.0809C181.369 58.1242 181.348 58.2198 181.348 58.3684V62.7209H184.376C184.999 62.7209 185.426 62.692 185.661 62.6355C185.893 62.5765 186.048 62.4779 186.12 62.336C186.184 62.2199 186.246 62.0226 186.304 61.7351C186.363 61.4519 186.419 61.0982 186.473 60.6815H186.975C186.932 61.1151 186.903 61.5294 186.881 61.9288C186.86 62.3257 186.849 62.7034 186.849 63.0583V63.3794C186.558 63.4113 186.259 63.433 185.957 63.4492C185.656 63.4648 185.343 63.4732 185.02 63.4732C184.774 63.4732 184.248 63.46 183.442 63.4329C182.638 63.4095 181.949 63.3951 181.38 63.3951C180.92 63.3951 180.187 63.4143 179.175 63.4492C179.086 63.4546 179.022 63.4564 178.98 63.4564ZM170.211 63.4564V62.9079C170.711 62.8929 171.06 62.87 171.255 62.8466C171.45 62.8195 171.568 62.7876 171.603 62.7503C171.661 62.6938 171.701 62.5735 171.725 62.3913C171.749 62.2067 171.76 61.8729 171.76 61.3881V53.0025C171.639 53.0025 171.477 53.0055 171.266 53.0103C171.058 53.0157 170.908 53.0188 170.815 53.0188H170.462C169.658 53.0188 169.165 53.0717 168.98 53.1793C168.794 53.2858 168.687 53.4981 168.654 53.8192L168.545 54.8603H168.091C168.091 54.719 168.094 54.5018 168.099 54.2047C168.104 53.91 168.107 53.6905 168.107 53.5432C168.107 53.3796 168.102 53.1877 168.091 52.9622C168.08 52.7373 168.065 52.4937 168.043 52.2261C168.19 52.2634 168.454 52.2874 168.833 52.3036C169.215 52.3199 169.709 52.3277 170.321 52.3277H174.708C175.317 52.3277 175.814 52.3199 176.195 52.3036C176.574 52.2874 176.839 52.2634 176.984 52.2261C176.965 52.4564 176.948 52.697 176.937 52.952C176.927 53.2058 176.922 53.4734 176.922 53.7549C176.922 53.9287 176.922 54.1055 176.924 54.2871C176.927 54.4724 176.933 54.6624 176.937 54.8603H176.484L176.374 53.8192C176.342 53.5678 176.289 53.3904 176.214 53.2918C176.139 53.1925 175.997 53.1228 175.795 53.0801C175.651 53.056 175.387 53.0344 175.004 53.0212C174.625 53.0073 174.046 53.0025 173.269 53.0025V61.693C173.269 62.2632 173.33 62.609 173.452 62.7293C173.576 62.8496 173.846 62.9079 174.262 62.9079C174.398 62.9079 174.505 62.9079 174.588 62.9061C174.668 62.9031 174.746 62.8977 174.818 62.8929V63.4564C174.505 63.4414 174.144 63.4281 173.738 63.4185C173.332 63.4113 172.887 63.4095 172.401 63.4095C171.656 63.4095 171.143 63.4113 170.869 63.4185C170.593 63.4281 170.374 63.4414 170.211 63.4564ZM156.529 59.6362V53.9985C156.529 53.4073 156.46 53.053 156.321 52.9358C156.185 52.8179 155.781 52.7535 155.114 52.7427L155.106 52.2261C155.653 52.2585 156.092 52.2796 156.417 52.2928C156.743 52.3061 157.016 52.3115 157.234 52.3115C157.402 52.3115 157.643 52.3061 157.957 52.2958C158.273 52.2844 158.792 52.2634 159.512 52.2261V52.7583H159.223C158.701 52.7583 158.367 52.8365 158.225 52.9941C158.081 53.1493 158.009 53.5835 158.009 54.2871V59.5971C158.009 60.7019 158.26 61.4873 158.76 61.9553C159.261 62.4232 160.091 62.6571 161.256 62.6571C162.481 62.6571 163.336 62.3781 163.825 61.8217C164.313 61.2648 164.556 60.2629 164.556 58.8146V54.6732C164.556 53.7789 164.482 53.2352 164.332 53.0452C164.185 52.8552 163.849 52.7583 163.328 52.7583H163.053V52.2261C163.497 52.2555 163.862 52.2766 164.153 52.2904C164.442 52.3037 164.695 52.3115 164.908 52.3115C165.112 52.3115 165.36 52.3037 165.656 52.2904C165.95 52.2766 166.332 52.2555 166.802 52.2261V52.7583C166.463 52.7583 166.193 52.7752 165.993 52.8094C165.79 52.8443 165.654 52.8979 165.581 52.9706C165.48 53.0693 165.411 53.305 165.366 53.6767C165.32 54.0466 165.299 54.5903 165.299 55.2993V58.2337C165.299 59.3932 165.256 60.2099 165.174 60.6754C165.09 61.1433 164.949 61.5511 164.751 61.8969C164.428 62.4833 163.924 62.9302 163.237 63.2375C162.551 63.5448 161.721 63.7006 160.747 63.7006C159.223 63.7006 158.14 63.3927 157.496 62.7798C156.852 62.1639 156.529 61.1169 156.529 59.6362ZM146.979 63.4564V62.9079C147.478 62.8929 147.829 62.87 148.023 62.8466C148.218 62.8195 148.335 62.7876 148.37 62.7503C148.428 62.6938 148.469 62.5735 148.493 62.3913C148.517 62.2067 148.527 61.8729 148.527 61.3881V53.0025C148.407 53.0025 148.244 53.0055 148.033 53.0103C147.826 53.0157 147.676 53.0188 147.581 53.0188H147.229C146.425 53.0188 145.931 53.0717 145.747 53.1793C145.56 53.2858 145.454 53.4981 145.422 53.8192L145.312 54.8603H144.859C144.859 54.719 144.86 54.5018 144.866 54.2047C144.872 53.91 144.875 53.6905 144.875 53.5432C144.875 53.3796 144.869 53.1877 144.859 52.9622C144.847 52.7373 144.831 52.4937 144.809 52.2261C144.957 52.2634 145.222 52.2874 145.601 52.3036C145.983 52.3199 146.477 52.3277 147.088 52.3277H151.475C152.084 52.3277 152.581 52.3199 152.963 52.3036C153.342 52.2874 153.606 52.2634 153.75 52.2261C153.731 52.4564 153.716 52.697 153.705 52.952C153.694 53.2058 153.689 53.4734 153.689 53.7549C153.689 53.9287 153.689 54.1055 153.692 54.2871C153.694 54.4724 153.7 54.6624 153.705 54.8603H153.251L153.142 53.8192C153.109 53.5678 153.056 53.3904 152.981 53.2918C152.906 53.1925 152.765 53.1228 152.562 53.0801C152.418 53.056 152.153 53.0344 151.772 53.0212C151.393 53.0073 150.813 53.0025 150.035 53.0025V61.693C150.035 62.2632 150.098 62.609 150.22 62.7293C150.343 62.8496 150.613 62.9079 151.029 62.9079C151.166 62.9079 151.273 62.9079 151.355 62.9061C151.436 62.9031 151.512 62.8977 151.584 62.8929V63.4564C151.273 63.4414 150.912 63.4281 150.506 63.4185C150.101 63.4113 149.654 63.4095 149.168 63.4095C148.423 63.4095 147.91 63.4113 147.635 63.4185C147.36 63.4281 147.141 63.4414 146.979 63.4564ZM141.919 61.3556V61.4326C141.919 62.1531 142.007 62.5807 142.18 62.7179C142.355 62.855 142.777 62.935 143.444 62.9626L143.435 63.4564C142.971 63.4305 142.557 63.4113 142.189 63.3981C141.82 63.3848 141.481 63.3794 141.168 63.3794C140.87 63.3794 140.538 63.3848 140.17 63.3981C139.802 63.4113 139.38 63.4305 138.899 63.4564L138.891 62.9626C139.553 62.9512 139.972 62.876 140.143 62.7347C140.316 62.5922 140.402 62.1429 140.402 61.3851V54.2342C140.402 53.53 140.314 53.1065 140.141 52.9676C139.964 52.8311 139.546 52.7505 138.877 52.7295V52.2339C139.321 52.2609 139.727 52.2796 140.099 52.2928C140.466 52.3061 140.819 52.3115 141.153 52.3115C141.321 52.3115 141.554 52.3061 141.853 52.2983C142.151 52.2874 142.678 52.2658 143.428 52.2339L143.42 52.7295C142.768 52.7343 142.355 52.8094 142.18 52.952C142.007 53.0963 141.919 53.5486 141.919 54.3064V61.3556ZM130.734 63.4564V62.9079C131.233 62.8929 131.583 62.87 131.779 62.8466C131.974 62.8195 132.09 62.7876 132.125 62.7503C132.184 62.6938 132.224 62.5735 132.248 62.3913C132.272 62.2067 132.283 61.8729 132.283 61.3881V53.0025C132.163 53.0025 131.999 53.0055 131.788 53.0103C131.581 53.0157 131.431 53.0188 131.337 53.0188H130.984C130.181 53.0188 129.686 53.0717 129.503 53.1793C129.316 53.2858 129.209 53.4981 129.177 53.8192L129.067 54.8603H128.614C128.614 54.719 128.617 54.5018 128.622 54.2047C128.627 53.91 128.63 53.6905 128.63 53.5432C128.63 53.3796 128.625 53.1877 128.614 52.9622C128.603 52.7373 128.587 52.4937 128.566 52.2261C128.712 52.2634 128.977 52.2874 129.356 52.3036C129.737 52.3199 130.232 52.3277 130.843 52.3277H135.231C135.839 52.3277 136.336 52.3199 136.719 52.3036C137.098 52.2874 137.361 52.2634 137.506 52.2261C137.488 52.4564 137.471 52.697 137.461 52.952C137.45 53.2058 137.445 53.4734 137.445 53.7549C137.445 53.9287 137.445 54.1055 137.447 54.2871C137.45 54.4724 137.455 54.6624 137.461 54.8603H137.007L136.897 53.8192C136.864 53.5678 136.812 53.3904 136.737 53.2918C136.662 53.1925 136.521 53.1228 136.317 53.0801C136.173 53.056 135.909 53.0344 135.528 53.0212C135.148 53.0073 134.569 53.0025 133.791 53.0025V61.693C133.791 62.2632 133.853 62.609 133.976 62.7293C134.098 62.8496 134.368 62.9079 134.784 62.9079C134.921 62.9079 135.028 62.9079 135.11 62.9061C135.191 62.9031 135.268 62.8977 135.34 62.8929V63.4564C135.028 63.4414 134.667 63.4281 134.261 63.4185C133.856 63.4113 133.41 63.4095 132.924 63.4095C132.179 63.4095 131.666 63.4113 131.391 63.4185C131.116 63.4281 130.897 63.4414 130.734 63.4564ZM119.832 63.1202C119.877 62.686 119.914 62.2578 119.942 61.835C119.968 61.4122 119.982 60.9912 119.982 60.5786L120.489 60.5948V60.7903C120.489 61.5252 120.684 62.0461 121.077 62.3594C121.466 62.6727 122.116 62.8309 123.023 62.8309C123.832 62.8309 124.463 62.6168 124.916 62.188C125.37 61.7568 125.598 61.1662 125.598 60.4048C125.598 59.8028 125.448 59.3559 125.151 59.0636C124.854 58.7683 124.262 58.5362 123.376 58.3648C123.256 58.3383 123.087 58.3082 122.868 58.2704C121.758 58.0623 121.029 57.8289 120.684 57.5727C120.36 57.3309 120.117 57.0398 119.952 56.694C119.789 56.3488 119.707 55.9579 119.707 55.5195C119.707 54.4832 120.067 53.6394 120.79 52.9863C121.512 52.3331 122.446 52.0066 123.594 52.0066C124.049 52.0066 124.505 52.0601 124.959 52.1671C125.416 52.2742 125.862 52.4348 126.294 52.6489C126.228 53.1096 126.177 53.5221 126.142 53.886C126.108 54.2474 126.088 54.5902 126.083 54.909L125.565 54.9325V54.7665C125.565 54.0357 125.391 53.5035 125.045 53.1685C124.7 52.8335 124.141 52.6651 123.376 52.6651C122.686 52.6651 122.132 52.8738 121.707 53.2918C121.282 53.7086 121.069 54.2553 121.069 54.9301C121.069 55.5002 121.227 55.9368 121.541 56.2369C121.856 56.5365 122.414 56.7722 123.213 56.9382C123.361 56.9647 123.582 57.0026 123.87 57.0555C124.932 57.2425 125.651 57.4699 126.019 57.7387C126.331 57.9684 126.56 58.2385 126.708 58.5554C126.855 58.8682 126.928 59.2398 126.928 59.6686C126.928 60.8144 126.484 61.7712 125.6 62.5356C124.716 63.3024 123.606 63.6849 122.264 63.6849C121.864 63.6849 121.459 63.6368 121.052 63.543C120.646 63.4492 120.237 63.3097 119.832 63.1202ZM107.777 60.4048C107.777 60.9707 107.79 61.4459 107.816 61.8368C107.841 62.2259 107.878 62.4881 107.926 62.624C107.955 62.7124 108.051 62.7774 108.212 62.8177C108.369 62.8568 108.614 62.876 108.948 62.876H109.208L109.199 63.4564C108.925 63.4414 108.634 63.4281 108.332 63.4185C108.027 63.4113 107.71 63.4095 107.376 63.4095C107.007 63.4095 106.671 63.4113 106.374 63.4185C106.078 63.4281 105.819 63.4414 105.6 63.4564V62.861C106.043 62.861 106.345 62.8381 106.508 62.7991C106.671 62.7558 106.78 62.6806 106.836 62.5717C106.905 62.4286 106.957 62.1429 106.993 61.7111C107.031 61.2805 107.049 60.6081 107.055 59.7005L107.087 53.3267C106.962 53.1252 106.804 52.9863 106.615 52.9003C106.423 52.8179 106.121 52.7643 105.71 52.7373V52.2339C105.988 52.2447 106.233 52.2555 106.452 52.2658C106.673 52.2766 106.852 52.282 106.993 52.282C107.218 52.282 107.451 52.2766 107.693 52.2658C107.937 52.2555 108.18 52.2447 108.426 52.2339C108.837 52.8311 109.298 53.4626 109.806 54.1296C110.315 54.7965 110.866 55.4948 111.461 56.2261L115.936 61.693V55.2861C115.936 54.7214 115.924 54.2451 115.896 53.8535C115.873 53.4656 115.836 53.2004 115.788 53.0584C115.763 52.9754 115.666 52.9111 115.507 52.8708C115.344 52.8281 115.098 52.807 114.764 52.807H114.513V52.2339C114.793 52.2501 115.088 52.261 115.392 52.2688C115.699 52.2766 116.011 52.282 116.335 52.282C116.695 52.282 117.029 52.2766 117.334 52.2658C117.637 52.2555 117.903 52.2447 118.126 52.2339V52.8227C117.689 52.8227 117.386 52.8443 117.224 52.887C117.059 52.9273 116.951 53.0055 116.898 53.115C116.82 53.2701 116.762 53.5805 116.728 54.0442C116.69 54.5043 116.671 55.155 116.671 55.9904L116.639 62.0605C116.639 62.4587 116.641 62.769 116.644 62.9939C116.647 63.2189 116.65 63.436 116.656 63.6447L116.546 63.7006L115.358 63.4414C114.821 62.7395 113.947 61.6413 112.737 60.148L112.41 59.7468L107.777 54.0466V60.4048ZM102.754 61.3556V61.4326C102.754 62.1531 102.842 62.5807 103.015 62.7179C103.189 62.855 103.612 62.935 104.279 62.9626L104.271 63.4564C103.807 63.4305 103.392 63.4113 103.024 63.3981C102.656 63.3848 102.317 63.3794 102.004 63.3794C101.705 63.3794 101.374 63.3848 101.006 63.3981C100.637 63.4113 100.215 63.4305 99.7341 63.4564L99.7258 62.9626C100.389 62.9512 100.807 62.876 100.979 62.7347C101.152 62.5922 101.237 62.1429 101.237 61.3851V54.2342C101.237 53.53 101.149 53.1065 100.976 52.9676C100.799 52.8311 100.381 52.7505 99.7132 52.7295V52.2339C100.156 52.2609 100.562 52.2796 100.933 52.2928C101.302 52.3061 101.654 52.3115 101.988 52.3115C102.156 52.3115 102.389 52.3061 102.688 52.2983C102.987 52.2874 103.513 52.2658 104.263 52.2339L104.255 52.7295C103.603 52.7343 103.189 52.8094 103.015 52.952C102.842 53.0963 102.754 53.5486 102.754 54.3064V61.3556ZM84.0652 60.4048C84.0652 60.9707 84.079 61.4459 84.1054 61.8368C84.1294 62.2259 84.1672 62.4881 84.2152 62.624C84.2434 62.7124 84.3406 62.7774 84.5007 62.8177C84.6579 62.8568 84.9038 62.876 85.2373 62.876H85.4965L85.4887 63.4564C85.2139 63.4414 84.9224 63.4281 84.6207 63.4185C84.3172 63.4113 83.998 63.4095 83.6651 63.4095C83.2962 63.4095 82.9603 63.4113 82.6633 63.4185C82.367 63.4281 82.1085 63.4414 81.8895 63.4564V62.861C82.3322 62.861 82.6339 62.8381 82.7971 62.7991C82.9603 62.7558 83.0688 62.6806 83.1258 62.5717C83.1942 62.4286 83.2458 62.1429 83.2836 61.7111C83.3196 61.2805 83.3388 60.6081 83.3442 59.7005L83.376 53.3267C83.2506 53.1252 83.0934 52.9863 82.9039 52.9003C82.7119 52.8179 82.4102 52.7643 81.9987 52.7373V52.2339C82.2758 52.2447 82.5212 52.2555 82.7413 52.2658C82.9633 52.2766 83.142 52.282 83.2836 52.282C83.5073 52.282 83.7401 52.2766 83.9824 52.2658C84.226 52.2555 84.4683 52.2447 84.7143 52.2339C85.1258 52.8311 85.5877 53.4626 86.0945 54.1296C86.605 54.7965 87.1551 55.4948 87.7502 56.2261L92.2257 61.693V55.2861C92.2257 54.7214 92.2125 54.2451 92.1867 53.8535C92.1621 53.4656 92.1243 53.2004 92.077 53.0584C92.0524 52.9754 91.957 52.9111 91.7962 52.8708C91.6336 52.8281 91.3883 52.807 91.0542 52.807H90.8034V52.2339C91.0836 52.2501 91.3769 52.261 91.681 52.2688C91.9887 52.2766 92.3007 52.282 92.624 52.282C92.9851 52.282 93.318 52.2766 93.6228 52.2658C93.9275 52.2555 94.1915 52.2447 94.4158 52.2339V52.8227C93.9779 52.8227 93.6762 52.8443 93.5136 52.887C93.3474 52.9273 93.2407 53.0055 93.1873 53.115C93.1105 53.2701 93.0511 53.5805 93.0163 54.0442C92.9791 54.5043 92.9605 55.155 92.9605 55.9904L92.9287 62.0605C92.9287 62.4587 92.9311 62.769 92.9341 62.9939C92.9359 63.2189 92.9389 63.436 92.9443 63.6447L92.8352 63.7006L91.6462 63.4414C91.11 62.7395 90.2366 61.6413 89.0267 60.148L88.6985 59.7468L84.0652 54.0466V60.4048ZM69.8659 63.4564V62.9626H69.8977C70.3986 62.9626 70.8965 62.3666 71.3938 61.1812C71.4382 61.0664 71.4754 60.978 71.503 60.9142L75.1555 52.1004C75.1711 52.0679 75.1987 52.0463 75.2335 52.0306C75.2707 52.0144 75.3211 52.0066 75.3822 52.0066C75.4446 52.0066 75.495 52.0144 75.5262 52.0306C75.5616 52.0463 75.5886 52.0709 75.6102 52.1082L79.4517 61.6449L79.4895 61.7381C79.8128 62.5543 80.2429 62.9626 80.7816 62.9626H80.844V63.4564C80.7444 63.4528 80.6082 63.4468 80.4379 63.4414C79.7162 63.4113 79.2177 63.3951 78.934 63.3951C78.5279 63.3951 78.1566 63.4011 77.8201 63.4113C77.4841 63.4227 77.1668 63.436 76.8705 63.4564V62.9626C77.4014 62.9398 77.7451 62.9001 77.8999 62.8424C78.0588 62.7798 78.1356 62.6806 78.1356 62.5398C78.1356 62.4605 78.12 62.354 78.0906 62.2259C78.0588 62.0942 78.0126 61.9534 77.9574 61.7995L76.9155 58.9782H73.1214L72.0788 61.7063C71.9966 61.9252 71.9408 62.0924 71.9109 62.2042C71.8845 62.3167 71.8689 62.4232 71.8689 62.5224C71.8689 62.6752 71.9486 62.7798 72.1034 62.8424C72.2612 62.9001 72.5845 62.9398 73.0752 62.9626V63.4564C72.7867 63.436 72.5095 63.4227 72.2366 63.4113C71.9672 63.4011 71.7003 63.3951 71.4382 63.3951C71.1424 63.3951 70.8647 63.4011 70.611 63.4113C70.3542 63.4227 70.1059 63.436 69.8659 63.4564ZM73.3961 58.2499H76.6107L75.0139 54.2023L73.3961 58.2499ZM68.6776 61.9288L68.8564 62.0304L68.4275 62.8628C67.947 63.1389 67.4149 63.3445 66.83 63.4811C66.2476 63.6182 65.5991 63.6849 64.8835 63.6849C64.0533 63.6849 63.2729 63.5544 62.5452 63.294C61.8158 63.0318 61.1824 62.6571 60.6509 62.1724C60.0558 61.6263 59.6119 60.9942 59.3186 60.2689C59.0229 59.5466 58.8753 58.7178 58.8753 57.7868C58.8753 56.0036 59.4326 54.5927 60.5525 53.551C61.6718 52.5093 63.1961 51.9903 65.1258 51.9903C65.7833 51.9903 66.4197 52.0462 67.0304 52.1563C67.6422 52.2658 68.2433 52.4348 68.8246 52.6651C68.7106 53.0506 68.6224 53.444 68.5606 53.8457C68.4971 54.2451 68.4563 54.66 68.4353 55.0876H68.0291C68.0028 54.8471 67.9812 54.6191 67.9674 54.4026C67.9512 54.1855 67.9386 53.9798 67.9278 53.7868C67.4689 53.4199 66.9668 53.1414 66.4239 52.952C65.8823 52.7613 65.3268 52.6651 64.7581 52.6651C63.439 52.6651 62.3977 53.0801 61.637 53.9125C60.8746 54.743 60.4937 55.8803 60.4937 57.3237C60.4937 58.9752 60.9556 60.3038 61.8824 61.3069C62.8092 62.3113 64.0263 62.8147 65.5403 62.8147C66.1384 62.8147 66.7041 62.7395 67.2385 62.5922C67.77 62.4418 68.2505 62.2199 68.6776 61.9288ZM55.6768 61.3556V61.4326C55.6768 62.1531 55.7656 62.5807 55.939 62.7179C56.1123 62.855 56.5346 62.935 57.2017 62.9626L57.1939 63.4564C56.7296 63.4305 56.3151 63.4113 55.9474 63.3981C55.5779 63.3848 55.2395 63.3794 54.927 63.3794C54.6277 63.3794 54.2972 63.3848 53.9282 63.3981C53.5593 63.4113 53.1376 63.4305 52.6571 63.4564L52.6488 62.9626C53.311 62.9512 53.7303 62.876 53.9019 62.7347C54.0752 62.5922 54.1604 62.1429 54.1604 61.3851V54.2342C54.1604 53.53 54.0722 53.1065 53.8989 52.9676C53.7231 52.8311 53.3032 52.7505 52.6356 52.7295V52.2339C53.0783 52.2609 53.4843 52.2796 53.8557 52.2928C54.2246 52.3061 54.5767 52.3115 54.9108 52.3115C55.0788 52.3115 55.3115 52.3061 55.6103 52.2983C55.909 52.2874 56.4351 52.2658 57.1855 52.2339L57.1777 52.7295C56.5256 52.7343 56.1123 52.8094 55.939 52.952C55.7656 53.0963 55.6768 53.5486 55.6768 54.3064V61.3556ZM41.5279 63.4564L41.5201 62.932C42.1716 62.9218 42.5693 62.8466 42.7163 62.7046C42.8632 62.5633 42.9358 62.1189 42.9358 61.3707V53.8812C42.9358 53.3477 42.8686 53.0272 42.7325 52.9189C42.5969 52.8119 42.2172 52.7583 41.5891 52.7583V52.2339C41.9658 52.2501 42.3288 52.261 42.6821 52.2688C43.0342 52.2766 43.3737 52.282 43.7024 52.282C43.865 52.282 44.2171 52.2712 44.7594 52.2477C45.3011 52.2231 45.766 52.2098 46.1529 52.2098C47.4618 52.2098 48.3909 52.3921 48.9434 52.7559C49.4965 53.1192 49.7742 53.7146 49.7742 54.5391C49.7742 55.2993 49.5499 55.9422 49.0982 56.4697C48.6471 56.9965 47.9686 57.4121 47.0694 57.7086L49.8516 61.42C49.9212 61.5078 50.0172 61.6365 50.1425 61.8031C50.7112 62.5765 51.1599 62.9644 51.488 62.9644H51.581V63.4564C51.4244 63.4414 51.2613 63.4281 51.0873 63.4185C50.9169 63.4113 50.7322 63.4095 50.5402 63.4095C50.3105 63.4095 50.1101 63.4113 49.9422 63.4185C49.7718 63.4281 49.6321 63.4414 49.5229 63.4564L49.2883 63.1352C48.7994 62.44 48.4197 61.915 48.1552 61.5589L46.3796 59.1839L46.3484 59.1442C45.6802 58.2613 45.2693 57.782 45.1115 57.7086V57.4193H45.2213C46.196 57.4193 46.9435 57.2106 47.4594 56.7908C47.9746 56.3735 48.2332 55.7732 48.2332 54.9944C48.2332 54.2793 48.0298 53.741 47.6273 53.385C47.2212 53.0296 46.607 52.8528 45.784 52.8528C45.5602 52.8528 45.3359 52.8684 45.1145 52.9003C44.8926 52.9303 44.6736 52.9754 44.4547 53.0314C44.4385 53.4734 44.4259 53.8247 44.4175 54.0893C44.4097 54.3521 44.4061 54.5476 44.4061 54.6732V61.3388C44.4061 62.1188 44.4763 62.5789 44.6178 62.7155C44.7594 62.855 45.0953 62.9236 45.6274 62.9236H45.9099V63.4564C45.4774 63.4414 45.0797 63.4281 44.7162 63.4185C44.3527 63.4113 44.0222 63.4095 43.7204 63.4095C43.3809 63.4095 43.0264 63.4113 42.6575 63.4185C42.2916 63.4281 41.9155 63.4414 41.5279 63.4564ZM31.758 63.4564V63.0101C32.0915 62.9163 32.3159 62.7744 32.4341 62.5868C32.5516 62.3997 32.6098 61.9553 32.6098 61.254V53.8643C32.6098 53.3531 32.5354 53.0398 32.3855 52.9273C32.2385 52.8149 31.8522 52.7397 31.2241 52.697V52.193C31.656 52.2152 32.0861 52.2315 32.5138 52.2447C32.9439 52.2585 33.3795 52.2634 33.8228 52.2634C35.3554 52.2634 36.8664 52.2447 38.3517 52.2098C38.603 52.199 38.7494 52.193 38.789 52.193C38.9893 52.193 39.1333 52.2291 39.2275 52.2958C39.3229 52.3626 39.3684 52.472 39.3684 52.6176C39.3684 52.6326 39.363 52.694 39.3529 52.804C39.2971 53.4439 39.2677 54.0923 39.2677 54.7508H38.8292C38.8136 54.322 38.7836 53.9876 38.738 53.7519C38.6954 53.5137 38.6264 53.3267 38.5322 53.1901C38.2869 53.0909 37.945 53.0187 37.5071 52.9706C37.0698 52.9249 36.4285 52.9003 35.5821 52.9003C35.1652 52.9003 34.8665 52.9033 34.6871 52.9111C34.5054 52.9189 34.3458 52.9357 34.2049 52.9544C34.1749 53.4151 34.1533 53.7332 34.1431 53.907C34.1317 54.0845 34.1269 54.2204 34.1269 54.3196V57.0188C34.1269 57.1662 34.1485 57.26 34.1934 57.3045C34.239 57.3502 34.338 57.3724 34.4958 57.3724L35.999 57.3394C36.8958 57.3177 37.4327 57.2413 37.6097 57.1018C37.7872 56.9617 37.876 56.6706 37.876 56.2261V55.9206L38.3781 55.929C38.3619 56.4053 38.3517 56.7692 38.3487 57.0212C38.3463 57.275 38.3463 57.5174 38.3463 57.7387C38.3463 57.9492 38.3463 58.1777 38.3487 58.4267C38.3517 58.6727 38.3619 59.0504 38.3781 59.5508H37.876C37.876 59.5087 37.879 59.4485 37.8838 59.3746C37.8892 59.2994 37.8922 59.2459 37.8922 59.214C37.8922 58.7365 37.8016 58.4267 37.6222 58.2818C37.4405 58.135 36.9036 58.0514 36.0044 58.0304L34.4958 58.0153C34.338 58.0153 34.239 58.0358 34.1934 58.0809C34.1485 58.1242 34.1269 58.2198 34.1269 58.3684V62.7209H37.1544C37.7776 62.7209 38.2041 62.692 38.4393 62.6355C38.672 62.5765 38.8268 62.4779 38.8987 62.336C38.9623 62.2199 39.0241 62.0226 39.0829 61.7351C39.1417 61.4519 39.1981 61.0982 39.2509 60.6815H39.7536C39.7104 61.1151 39.6804 61.5294 39.6594 61.9288C39.6384 62.3257 39.6276 62.7034 39.6276 63.0583V63.3794C39.3367 63.4113 39.0373 63.433 38.735 63.4492C38.4339 63.4648 38.1219 63.4732 37.7986 63.4732C37.5533 63.4732 37.0272 63.46 36.2204 63.4329C35.4166 63.4095 34.7279 63.3951 34.1587 63.3951C33.6998 63.3951 32.9649 63.4143 31.9536 63.4492C31.8648 63.4546 31.8012 63.4564 31.758 63.4564ZM15.4406 63.4564V62.9163C15.7801 62.9061 16.0441 62.876 16.2385 62.8309C16.4316 62.7816 16.5648 62.7155 16.6367 62.627C16.7045 62.5356 16.7543 62.3444 16.7861 62.0407C16.8161 61.7411 16.8419 61.1518 16.8635 60.2737L16.9733 54.4134V53.9985C16.9733 53.4656 16.8827 53.1312 16.7045 52.9941C16.5246 52.8576 16.1029 52.7908 15.4406 52.7908V52.2339C15.737 52.2501 16.0069 52.261 16.2474 52.2688C16.4868 52.2766 16.6925 52.282 16.8635 52.282C17.0831 52.282 17.323 52.2766 17.5797 52.2688C17.8389 52.261 18.119 52.2501 18.4213 52.2339C18.5839 52.6356 18.7836 53.1017 19.0272 53.6292C19.2695 54.159 19.5587 54.7665 19.8922 55.4575L22.6294 61.0664L25.3209 55.4413C25.5717 54.9144 25.8122 54.3858 26.0444 53.8565C26.2777 53.3291 26.5039 52.7884 26.7282 52.2339C27.0251 52.2501 27.2969 52.261 27.5452 52.2688C27.7935 52.2766 28.0233 52.282 28.2392 52.282C28.5146 52.282 28.7713 52.2766 29.0083 52.2688C29.2464 52.261 29.4917 52.2501 29.7485 52.2339L29.7401 52.7427C29.0515 52.7583 28.6345 52.8281 28.4876 52.949C28.3412 53.0693 28.2698 53.4596 28.2698 54.1242V61.1764C28.2698 61.6209 28.2848 61.9661 28.3196 62.2091C28.3544 62.4556 28.4078 62.6168 28.4804 62.6878C28.5332 62.7425 28.6454 62.7798 28.8163 62.8063C28.9897 62.8327 29.31 62.8568 29.7803 62.876L29.7725 63.4564C29.5877 63.4414 29.361 63.4281 29.0838 63.4185C28.8079 63.4113 28.3226 63.4095 27.6286 63.4095C26.9501 63.4095 26.4696 63.4113 26.1805 63.4185C25.895 63.4281 25.6473 63.4414 25.4379 63.4564V62.8929H25.6976C26.1913 62.8929 26.5068 62.8177 26.643 62.6643C26.7792 62.5152 26.8458 62.0924 26.8458 61.4038V53.9822L23.5129 61.0796C23.222 61.7147 22.9875 62.2313 22.8105 62.6355C22.6324 63.0372 22.5034 63.3536 22.426 63.5821H22.0895C21.9533 63.2652 21.8069 62.9265 21.6492 62.5717C21.489 62.2145 21.3049 61.8163 21.0967 61.3707L17.6619 54.1398L17.6859 60.6965C17.6859 61.4591 17.7051 61.9685 17.7399 62.2229C17.7771 62.4749 17.8437 62.6409 17.9372 62.7209C18.0146 62.7774 18.167 62.8231 18.3937 62.8568C18.6211 62.8929 18.8904 62.9079 19.2036 62.9079V63.4564C18.936 63.4414 18.6505 63.4281 18.3458 63.4185C18.0416 63.4113 17.7243 63.4095 17.395 63.4095C17.0506 63.4095 16.7165 63.4113 16.3938 63.4185C16.0711 63.4281 15.7538 63.4414 15.4406 63.4564ZM3.44643 63.4564V62.9626H3.47882C3.9803 62.9626 4.47698 62.3666 4.97367 61.1812C5.01926 61.0664 5.05706 60.978 5.08345 60.9142L8.73599 52.1004C8.75218 52.0679 8.77918 52.0463 8.81337 52.0306C8.85116 52.0144 8.90155 52.0066 8.96333 52.0066C9.02452 52.0066 9.07551 52.0144 9.1079 52.0306C9.14209 52.0463 9.1685 52.0709 9.1901 52.1082L13.0334 61.6449L13.07 61.7381C13.3933 62.5543 13.8234 62.9626 14.3627 62.9626H14.4245V63.4564C14.3255 63.4528 14.1887 63.4468 14.0184 63.4414C13.2973 63.4113 12.7983 63.3951 12.5151 63.3951C12.1096 63.3951 11.7377 63.4011 11.4012 63.4113C11.0652 63.4227 10.7473 63.436 10.451 63.4564V62.9626C10.9825 62.9398 11.3262 62.9001 11.4816 62.8424C11.6387 62.7798 11.7167 62.6806 11.7167 62.5398C11.7167 62.4605 11.7005 62.354 11.6711 62.2259C11.6387 62.0942 11.5931 61.9534 11.5373 61.7995L10.496 58.9782H6.70188L5.66052 61.7063C5.57774 61.9252 5.52194 62.0924 5.49195 62.2042C5.46496 62.3167 5.44936 62.4232 5.44936 62.5224C5.44936 62.6752 5.52974 62.7798 5.6845 62.8424C5.84166 62.9001 6.16498 62.9398 6.65626 62.9626V63.4564C6.36773 63.436 6.09 63.4227 5.81707 63.4113C5.54833 63.4011 5.2814 63.3951 5.01926 63.3951C4.72233 63.3951 4.44519 63.4011 4.19085 63.4113C3.93531 63.4227 3.68697 63.436 3.44643 63.4564ZM6.97661 58.2499H10.1912L8.59503 54.2023L6.97661 58.2499ZM178.303 74.804V74.875C178.303 75.5365 178.38 75.9293 178.54 76.055C178.697 76.1813 179.085 76.254 179.703 76.2787L179.696 76.7346C179.268 76.7099 178.888 76.6925 178.55 76.6811C178.211 76.6678 177.9 76.663 177.613 76.663C177.339 76.663 177.034 76.6678 176.694 76.6811C176.356 76.6925 175.968 76.7099 175.527 76.7346L175.519 76.2787C176.123 76.2697 176.506 76.1999 176.668 76.07C176.828 75.9401 176.908 75.5269 176.908 74.8299V68.2593C176.908 67.6128 176.828 67.2237 176.668 67.0962C176.506 66.9705 176.121 66.8971 175.507 66.8761V66.4214C175.915 66.4461 176.288 66.4641 176.629 66.4761C176.967 66.4882 177.291 66.493 177.598 66.493C177.742 66.493 177.946 66.4882 178.209 66.4809C178.471 66.4707 178.959 66.4515 179.673 66.4214L179.665 66.8761C179.072 66.8821 178.697 66.9477 178.54 67.0764C178.38 67.2015 178.303 67.6206 178.303 68.3261V70.89C178.633 70.89 179.126 70.8936 179.784 70.905C180.439 70.914 180.935 70.9182 181.264 70.9182C181.585 70.9182 182.076 70.914 182.731 70.905C183.389 70.8936 183.879 70.89 184.206 70.89V68.2593C184.206 67.6128 184.127 67.2237 183.968 67.0962C183.811 66.9705 183.422 66.8971 182.81 66.8761V66.4214C183.201 66.4461 183.569 66.4641 183.914 66.4761C184.256 66.4882 184.586 66.493 184.902 66.493C185.059 66.493 185.287 66.4882 185.584 66.4761C185.881 66.4671 186.347 66.4491 186.985 66.4214V66.8761C186.377 66.8869 185.996 66.9555 185.839 67.0866C185.686 67.2165 185.607 67.6297 185.607 68.3261V74.875C185.607 75.5365 185.686 75.9293 185.843 76.055C186.001 76.1813 186.386 76.254 187 76.2787V76.7346C186.608 76.7099 186.239 76.6925 185.893 76.6811C185.548 76.6678 185.223 76.663 184.917 76.663C184.767 76.663 184.556 76.6678 184.279 76.6768C184.004 76.6877 183.523 76.7051 182.839 76.7346V76.2787C183.437 76.2697 183.815 76.1999 183.971 76.0748C184.127 75.9467 184.206 75.5311 184.206 74.8299V71.5828C183.395 71.5738 182.787 71.566 182.382 71.5606C181.977 71.5563 181.605 71.5533 181.264 71.5533C180.919 71.5533 180.542 71.5563 180.133 71.5606C179.723 71.566 179.112 71.5756 178.303 71.5906V74.804ZM174.502 75.3297L174.666 75.4229L174.27 76.1885C173.829 76.4417 173.341 76.6311 172.804 76.7562C172.269 76.8819 171.672 76.9445 171.016 76.9445C170.251 76.9445 169.536 76.8236 168.866 76.5842C168.195 76.3431 167.614 75.9984 167.125 75.5534C166.578 75.0518 166.171 74.4708 165.901 73.8044C165.629 73.1405 165.494 72.3803 165.494 71.5239C165.494 69.8868 166.007 68.5901 167.034 67.6321C168.064 66.6752 169.464 66.1983 171.238 66.1983C171.842 66.1983 172.425 66.2494 172.988 66.3504C173.549 66.4515 174.102 66.606 174.637 66.8183C174.531 67.1726 174.449 67.534 174.393 67.9021C174.334 68.2696 174.297 68.6515 174.278 69.0448H173.905C173.88 68.8229 173.861 68.6142 173.849 68.4151C173.834 68.216 173.821 68.026 173.812 67.8498C173.39 67.5118 172.928 67.2562 172.431 67.0812C171.933 66.9068 171.422 66.8183 170.9 66.8183C169.687 66.8183 168.731 67.1996 168.031 67.964C167.332 68.7273 166.981 69.7719 166.981 71.0987C166.981 72.6166 167.406 73.8363 168.257 74.7589C169.108 75.6815 170.227 76.144 171.618 76.144C172.167 76.144 172.688 76.0748 173.179 75.9401C173.666 75.8012 174.109 75.5973 174.502 75.3297ZM155.619 76.7346L155.611 76.2522C156.21 76.2432 156.575 76.1735 156.71 76.0436C156.845 75.9124 156.912 75.5047 156.912 74.8178V67.9346C156.912 67.4456 156.849 67.1509 156.725 67.0511C156.599 66.9537 156.252 66.9043 155.674 66.9043V66.4214C156.02 66.4364 156.355 66.4461 156.678 66.4539C157.002 66.4611 157.314 66.4671 157.615 66.4671C157.765 66.4671 158.09 66.4563 158.587 66.4346C159.085 66.4124 159.512 66.3998 159.868 66.3998C161.07 66.3998 161.923 66.5676 162.432 66.9019C162.94 67.2363 163.195 67.7818 163.195 68.5402C163.195 69.2385 162.989 69.8297 162.574 70.3132C162.16 70.7979 161.536 71.1793 160.709 71.4529L163.266 74.8623C163.33 74.9435 163.418 75.0614 163.533 75.2136C164.057 75.9257 164.469 76.2817 164.77 76.2817H164.856V76.7346C164.712 76.7195 164.562 76.7069 164.402 76.6997C164.244 76.6925 164.076 76.6907 163.899 76.6907C163.688 76.6907 163.505 76.6925 163.35 76.6997C163.193 76.7069 163.065 76.7195 162.965 76.7346L162.748 76.4387C162.3 75.7994 161.951 75.317 161.708 74.9899L160.076 72.8085L160.046 72.7706C159.434 71.9593 159.056 71.5191 158.912 71.4529V71.1865H159.012C159.907 71.1865 160.594 70.9952 161.069 70.6091C161.542 70.2248 161.779 69.6745 161.779 68.9582C161.779 68.3009 161.594 67.8065 161.222 67.4793C160.85 67.1527 160.285 66.9904 159.529 66.9904C159.323 66.9904 159.117 67.0054 158.914 67.0343C158.71 67.0613 158.508 67.104 158.307 67.1546C158.293 67.5605 158.28 67.8835 158.273 68.1264C158.265 68.3682 158.264 68.5468 158.264 68.6635V74.789C158.264 75.5047 158.327 75.9275 158.457 76.0532C158.587 76.1813 158.896 76.245 159.384 76.245H159.645V76.7346C159.247 76.7195 158.881 76.7069 158.547 76.6997C158.214 76.6925 157.91 76.6907 157.633 76.6907C157.321 76.6907 156.995 76.6925 156.657 76.6997C156.32 76.7069 155.974 76.7195 155.619 76.7346ZM145.029 76.7345V76.2786H145.058C145.518 76.2786 145.976 75.7331 146.431 74.644C146.473 74.5369 146.508 74.4563 146.533 74.398L149.89 66.2993C149.904 66.2698 149.929 66.2493 149.96 66.2355C149.995 66.2205 150.041 66.2133 150.097 66.2133C150.154 66.2133 150.2 66.2205 150.23 66.2355C150.262 66.2493 150.287 66.2716 150.306 66.3059L153.837 75.0686L153.872 75.1552C154.167 75.9046 154.563 76.2786 155.059 76.2786H155.115V76.7345C155.024 76.7297 154.9 76.7237 154.742 76.7195C154.08 76.6924 153.621 76.6768 153.361 76.6768C152.988 76.6768 152.647 76.6828 152.338 76.6924C152.028 76.702 151.737 76.7147 151.465 76.7345V76.2786C151.953 76.26 152.269 76.2221 152.411 76.168C152.556 76.1114 152.627 76.0212 152.627 75.8907C152.627 75.8198 152.612 75.7205 152.586 75.602C152.556 75.4818 152.515 75.3524 152.464 75.2117L151.507 72.6184H148.019L147.063 75.1251C146.986 75.3272 146.935 75.48 146.908 75.5834C146.883 75.6868 146.868 75.7849 146.868 75.8757C146.868 76.0158 146.942 76.1114 147.085 76.168C147.229 76.2221 147.526 76.26 147.977 76.2786V76.7345C147.713 76.7147 147.458 76.702 147.208 76.6924C146.959 76.6828 146.715 76.6768 146.473 76.6768C146.201 76.6768 145.946 76.6828 145.713 76.6924C145.478 76.702 145.249 76.7147 145.029 76.7345ZM148.272 71.9496H151.226L149.759 68.2298L148.272 71.9496ZM137.008 76.7345V76.3237C137.314 76.2377 137.52 76.1078 137.628 75.9352C137.736 75.762 137.79 75.3543 137.79 74.7101V67.9201C137.79 67.4498 137.721 67.1617 137.584 67.0589C137.449 66.9554 137.094 66.8868 136.517 66.8484V66.3853C136.914 66.4045 137.309 66.4201 137.702 66.4322C138.097 66.4442 138.497 66.449 138.904 66.449C140.313 66.449 141.701 66.4322 143.066 66.3997C143.296 66.3895 143.431 66.3853 143.468 66.3853C143.652 66.3853 143.784 66.4171 143.87 66.4779C143.959 66.5398 144.001 66.6415 144.001 66.7738C144.001 66.7882 143.995 66.8448 143.986 66.9458C143.934 67.534 143.907 68.1294 143.907 68.7344H143.504C143.49 68.3411 143.463 68.0338 143.421 67.8166C143.382 67.5977 143.319 67.4251 143.232 67.3C143.007 67.2092 142.693 67.1431 142.29 67.0979C141.888 67.057 141.299 67.0342 140.52 67.0342C140.138 67.0342 139.864 67.0372 139.7 67.0444C139.532 67.051 139.385 67.0661 139.255 67.0829C139.228 67.5069 139.209 67.7992 139.198 67.9598C139.189 68.1222 139.185 68.2479 139.185 68.3381V70.8183C139.185 70.9537 139.203 71.0391 139.245 71.0818C139.288 71.1227 139.377 71.1437 139.522 71.1437L140.904 71.1136C141.729 71.0926 142.221 71.0222 142.384 70.8935C142.548 70.766 142.629 70.4978 142.629 70.0894V69.8091L143.09 69.817C143.075 70.2548 143.066 70.5892 143.063 70.8207C143.061 71.0541 143.061 71.2754 143.061 71.4799C143.061 71.6736 143.061 71.8841 143.063 72.112C143.066 72.3381 143.075 72.6846 143.09 73.1446H142.629C142.629 73.1056 142.631 73.0514 142.637 72.9835C142.642 72.9131 142.644 72.8644 142.644 72.8349C142.644 72.3965 142.561 72.112 142.396 71.9797C142.229 71.8444 141.736 71.7674 140.909 71.7487L139.522 71.7337C139.377 71.7337 139.288 71.7523 139.245 71.7944C139.203 71.8341 139.185 71.9226 139.185 72.0579V76.0579H141.967C142.538 76.0579 142.931 76.0309 143.146 75.9791C143.36 75.9256 143.502 75.8336 143.569 75.7025C143.628 75.5972 143.684 75.4168 143.737 75.1534C143.792 74.8924 143.844 74.567 143.892 74.1839H144.354C144.315 74.582 144.288 74.9639 144.268 75.3296C144.248 75.6947 144.239 76.0405 144.239 76.3671V76.6629C143.971 76.6924 143.696 76.7129 143.419 76.7267C143.142 76.7411 142.855 76.7484 142.558 76.7484C142.332 76.7484 141.848 76.7375 141.107 76.7129C140.369 76.6906 139.735 76.6768 139.213 76.6768C138.792 76.6768 138.117 76.6954 137.186 76.7267C137.106 76.7315 137.047 76.7345 137.008 76.7345ZM128.986 76.4244C129.028 76.0263 129.063 75.6323 129.087 75.2432C129.112 74.8547 129.124 74.4692 129.124 74.0897L129.59 74.1053V74.284C129.59 74.9582 129.769 75.4375 130.13 75.7262C130.489 76.0137 131.085 76.1586 131.919 76.1586C132.663 76.1586 133.242 75.9607 133.659 75.5686C134.076 75.1723 134.284 74.6292 134.284 73.9303C134.284 73.3758 134.147 72.9662 133.874 72.6974C133.601 72.4274 133.057 72.2127 132.243 72.0545C132.132 72.0304 131.977 72.004 131.776 71.9697C130.755 71.7766 130.086 71.5637 129.769 71.3274C129.473 71.1061 129.249 70.8372 129.097 70.5197C128.947 70.2021 128.872 69.8437 128.872 69.4413C128.872 68.4887 129.203 67.7134 129.868 67.1132C130.53 66.513 131.388 66.2129 132.445 66.2129C132.861 66.2129 133.281 66.2622 133.698 66.3609C134.117 66.4595 134.527 66.6056 134.924 66.8029C134.863 67.2257 134.816 67.6052 134.784 67.9402C134.752 68.2722 134.735 68.5861 134.731 68.8796L134.254 68.9019V68.7497C134.254 68.0773 134.095 67.5883 133.776 67.2804C133.46 66.9731 132.947 66.8179 132.243 66.8179C131.61 66.8179 131.1 67.0098 130.709 67.3929C130.319 67.7772 130.124 68.28 130.124 68.8989C130.124 69.4233 130.268 69.8244 130.557 70.0999C130.847 70.3747 131.359 70.5912 132.093 70.7446C132.23 70.7687 132.432 70.8035 132.696 70.8523C133.673 71.0249 134.333 71.2336 134.672 71.4795C134.959 71.6912 135.17 71.939 135.305 72.2295C135.44 72.5182 135.506 72.8598 135.506 73.2537C135.506 74.3062 135.099 75.1849 134.287 75.888C133.474 76.5916 132.454 76.944 131.221 76.944C130.854 76.944 130.481 76.899 130.108 76.8129C129.735 76.7269 129.359 76.5982 128.986 76.4244ZM120.36 76.7345V76.3237C120.667 76.2377 120.873 76.1078 120.98 75.9352C121.088 75.762 121.143 75.3543 121.143 74.7101V67.9201C121.143 67.4498 121.074 67.1617 120.936 67.0589C120.801 66.9554 120.446 66.8868 119.869 66.8484V66.3853C120.267 66.4045 120.662 66.4201 121.054 66.4322C121.448 66.4442 121.849 66.449 122.257 66.449C123.665 66.449 125.054 66.4322 126.418 66.3997C126.648 66.3895 126.784 66.3853 126.82 66.3853C127.004 66.3853 127.137 66.4171 127.222 66.4779C127.311 66.5398 127.352 66.6415 127.352 66.7738C127.352 66.7882 127.348 66.8448 127.339 66.9458C127.287 67.534 127.259 68.1294 127.259 68.7344H126.856C126.842 68.3411 126.815 68.0338 126.773 67.8166C126.734 67.5977 126.67 67.4251 126.585 67.3C126.359 67.2092 126.045 67.1431 125.642 67.0979C125.24 67.057 124.651 67.0342 123.873 67.0342C123.491 67.0342 123.215 67.0372 123.051 67.0444C122.885 67.051 122.738 67.0661 122.607 67.0829C122.58 67.5069 122.561 67.7992 122.55 67.9598C122.541 68.1222 122.536 68.2479 122.536 68.3381V70.8183C122.536 70.9537 122.555 71.0391 122.597 71.0818C122.639 71.1227 122.73 71.1437 122.874 71.1437L124.256 71.1136C125.081 71.0926 125.574 71.0222 125.736 70.8935C125.899 70.766 125.981 70.4978 125.981 70.0894V69.8091L126.443 69.817C126.427 70.2548 126.418 70.5892 126.415 70.8207C126.412 71.0541 126.412 71.2754 126.412 71.4799C126.412 71.6736 126.412 71.8841 126.415 72.112C126.418 72.3381 126.427 72.6846 126.443 73.1446H125.981C125.981 73.1056 125.983 73.0514 125.989 72.9835C125.994 72.9131 125.995 72.8644 125.995 72.8349C125.995 72.3965 125.912 72.112 125.748 71.9797C125.581 71.8444 125.087 71.7674 124.261 71.7487L122.874 71.7337C122.73 71.7337 122.639 71.7523 122.597 71.7944C122.555 71.8341 122.536 71.9226 122.536 72.0579V76.0579H125.319C125.89 76.0579 126.283 76.0309 126.498 75.9791C126.712 75.9256 126.854 75.8336 126.92 75.7025C126.979 75.5972 127.037 75.4168 127.09 75.1534C127.145 74.8924 127.196 74.567 127.245 74.1839H127.706C127.667 74.582 127.64 74.9639 127.62 75.3296C127.601 75.6947 127.59 76.0405 127.59 76.3671V76.6629C127.323 76.6924 127.048 76.7129 126.771 76.7267C126.494 76.7411 126.206 76.7484 125.91 76.7484C125.684 76.7484 125.201 76.7375 124.46 76.7129C123.721 76.6906 123.088 76.6768 122.566 76.6768C122.144 76.6768 121.469 76.6954 120.539 76.7267C120.458 76.7315 120.398 76.7345 120.36 76.7345ZM110.174 76.7345L110.166 76.2522C110.765 76.2432 111.131 76.1734 111.266 76.0435C111.401 75.9124 111.467 75.5046 111.467 74.8178V67.9345C111.467 67.4456 111.406 67.1509 111.281 67.051C111.156 66.9536 110.808 66.9043 110.231 66.9043V66.422C110.577 66.4364 110.911 66.446 111.235 66.4538C111.559 66.4611 111.87 66.4671 112.172 66.4671C112.322 66.4671 112.645 66.4562 113.143 66.4352C113.641 66.4123 114.068 66.3997 114.425 66.3997C115.627 66.3997 116.48 66.5675 116.988 66.9019C117.496 67.2363 117.751 67.7818 117.751 68.5402C117.751 69.2384 117.545 69.8296 117.131 70.3131C116.716 70.7979 116.092 71.1792 115.266 71.4528L117.822 74.8623C117.886 74.9435 117.975 75.0614 118.09 75.2135C118.612 75.9256 119.024 76.2817 119.326 76.2817H119.412V76.7345C119.268 76.7195 119.118 76.7068 118.958 76.6996C118.801 76.6924 118.632 76.6906 118.456 76.6906C118.245 76.6906 118.06 76.6924 117.906 76.6996C117.749 76.7068 117.621 76.7195 117.521 76.7345L117.305 76.4386C116.855 75.7993 116.508 75.317 116.264 74.9898L114.633 72.8084L114.603 72.7706C113.989 71.9592 113.612 71.519 113.468 71.4528V71.1864H113.568C114.464 71.1864 115.15 70.9952 115.624 70.609C116.097 70.2247 116.335 69.6744 116.335 68.9582C116.335 68.3008 116.149 67.8064 115.779 67.4792C115.405 67.1527 114.841 66.9903 114.086 66.9903C113.879 66.9903 113.673 67.0053 113.47 67.0342C113.265 67.0619 113.065 67.104 112.863 67.1545C112.849 67.5604 112.836 67.8834 112.83 68.1264C112.822 68.3681 112.82 68.5468 112.82 68.6634V74.7889C112.82 75.5046 112.883 75.9274 113.013 76.0531C113.143 76.1812 113.453 76.245 113.941 76.245H114.2V76.7345C113.803 76.7195 113.437 76.7068 113.104 76.6996C112.77 76.6924 112.466 76.6906 112.188 76.6906C111.878 76.6906 111.551 76.6924 111.212 76.6996C110.876 76.7068 110.53 76.7195 110.174 76.7345ZM105.436 75.3297L105.601 75.4229L105.206 76.1885C104.764 76.4417 104.276 76.6311 103.739 76.7562C103.204 76.8819 102.607 76.9445 101.949 76.9445C101.187 76.9445 100.47 76.8236 99.8005 76.5842C99.1311 76.3431 98.5492 75.9984 98.0609 75.5534C97.5138 75.0518 97.1065 74.4708 96.836 73.8044C96.5643 73.1405 96.4293 72.3803 96.4293 71.5239C96.4293 69.8868 96.9422 68.5901 97.9703 67.6321C98.9991 66.6752 100.4 66.1983 102.174 66.1983C102.777 66.1983 103.361 66.2494 103.923 66.3504C104.484 66.4515 105.036 66.606 105.572 66.8183C105.466 67.1726 105.385 67.534 105.328 67.9021C105.27 68.2696 105.233 68.6515 105.214 69.0448H104.841C104.816 68.8229 104.797 68.6142 104.784 68.4151C104.769 68.216 104.757 68.026 104.748 67.8498C104.325 67.5112 103.864 67.2562 103.365 67.0812C102.868 66.9068 102.357 66.8183 101.834 66.8183C100.623 66.8183 99.6661 67.1996 98.9673 67.964C98.2673 68.7273 97.9169 69.7719 97.9169 71.0987C97.9169 72.6166 98.341 73.8363 99.1922 74.7589C100.044 75.6815 101.163 76.144 102.554 76.144C103.103 76.144 103.623 76.0748 104.114 75.9401C104.602 75.8012 105.044 75.5973 105.436 75.3297ZM94.0856 74.804V74.875C94.0856 75.5365 94.1678 75.9293 94.3262 76.055C94.4857 76.1813 94.8738 76.254 95.4869 76.2787L95.4803 76.7346C95.0526 76.7099 94.6729 76.6925 94.334 76.6811C93.995 76.6678 93.6837 76.663 93.3964 76.663C93.1217 76.663 92.8181 76.6678 92.4786 76.6811C92.1409 76.6925 91.7522 76.7099 91.3113 76.7346L91.3035 76.2787C91.9117 76.2697 92.2975 76.1999 92.454 76.07C92.6136 75.9401 92.6928 75.5269 92.6928 74.8299V68.2593C92.6928 67.6128 92.6118 67.2237 92.4516 67.0962C92.2909 66.9705 91.9046 66.8971 91.2915 66.8761V66.4214C91.6988 66.4461 92.0725 66.4641 92.4126 66.4761C92.7515 66.4882 93.0743 66.493 93.382 66.493C93.5368 66.493 93.7491 66.4882 94.0245 66.4809C94.2992 66.4707 94.7833 66.4515 95.4731 66.4214L95.4653 66.8761C94.8666 66.8821 94.4857 66.9513 94.3262 67.0812C94.1678 67.2147 94.0856 67.6297 94.0856 68.3261V74.804ZM77.4683 76.7345V76.2377C77.7796 76.2281 78.0226 76.1999 78.2013 76.1584C78.3783 76.1145 78.5013 76.0531 78.5672 75.9713C78.6284 75.8883 78.6752 75.7115 78.7046 75.433C78.731 75.157 78.7556 74.6163 78.776 73.8098L78.8768 68.4247V68.0434C78.8768 67.5538 78.7922 67.2465 78.6284 67.1208C78.4647 66.9951 78.0766 66.9338 77.4683 66.9338V66.422C77.7401 66.4364 77.9884 66.446 78.2085 66.4538C78.4299 66.4611 78.6188 66.4671 78.776 66.4671C78.9775 66.4671 79.1983 66.4611 79.4335 66.4538C79.6716 66.446 79.9295 66.4364 80.2061 66.422C80.356 66.7918 80.5402 67.2182 80.7627 67.703C80.9859 68.1907 81.2516 68.75 81.5576 69.3839L84.0728 74.5369L86.5466 69.3689C86.7775 68.8848 86.9983 68.4006 87.2119 67.9129C87.4248 67.4287 87.6336 66.9308 87.8393 66.422C88.1123 66.4364 88.3624 66.446 88.5903 66.4538C88.8188 66.4611 89.0294 66.4671 89.228 66.4671C89.4799 66.4671 89.7162 66.4611 89.9346 66.4538C90.1529 66.446 90.3785 66.4364 90.6143 66.422L90.6064 66.8893C89.9742 66.9043 89.5909 66.9686 89.4559 67.0793C89.3209 67.19 89.2555 67.549 89.2555 68.1589V74.6386C89.2555 75.0457 89.27 75.3639 89.3018 75.5876C89.333 75.8149 89.3827 75.9611 89.4487 76.0291C89.4985 76.0778 89.6017 76.1115 89.7577 76.1361C89.9178 76.1614 90.2123 76.183 90.6442 76.1999L90.6364 76.7345C90.4673 76.7195 90.2591 76.7068 90.003 76.6996C89.7517 76.6924 89.3042 76.6906 88.6659 76.6906C88.0433 76.6906 87.6018 76.6924 87.3366 76.6996C87.0745 76.7068 86.8453 76.7195 86.654 76.7345V76.2149H86.8921C87.3462 76.2149 87.6359 76.1457 87.7607 76.0062C87.8855 75.8697 87.9473 75.48 87.9473 74.8467V68.0283L84.885 74.5501C84.618 75.1323 84.4021 75.6081 84.2401 75.9791C84.0758 76.3478 83.9582 76.6389 83.8868 76.85H83.5785C83.4525 76.5565 83.3176 76.2468 83.173 75.9202C83.0254 75.593 82.8562 75.2262 82.6655 74.8178L79.509 68.1727L79.5312 74.1977C79.5312 74.8996 79.5486 75.3669 79.5804 75.6002C79.6152 75.8318 79.6764 75.9839 79.7622 76.0579C79.8336 76.1096 79.9733 76.1505 80.1809 76.183C80.3902 76.2149 80.6386 76.2299 80.9253 76.2299V76.7345C80.6799 76.7195 80.4172 76.7068 80.1371 76.6996C79.8576 76.6924 79.5654 76.6906 79.2637 76.6906C78.947 76.6906 78.6404 76.6924 78.3435 76.6996C78.0466 76.7068 77.7556 76.7195 77.4683 76.7345ZM65.6565 71.6095C65.6565 70.8078 65.7896 70.0783 66.0566 69.4203C66.3211 68.7612 66.7164 68.1802 67.2437 67.6768C67.7374 67.1993 68.3186 66.8378 68.9857 66.587C69.6539 66.3387 70.3696 66.213 71.1302 66.213C72.7816 66.213 74.0941 66.6604 75.0647 67.5565C76.0335 68.4545 76.5181 69.6621 76.5181 71.1849C76.5181 72.0215 76.3916 72.7739 76.1336 73.4456C75.8787 74.1144 75.4906 74.7195 74.9753 75.2583C74.4228 75.8243 73.7972 76.2495 73.0983 76.5327C72.3989 76.8148 71.6263 76.9592 70.7799 76.9592C69.2214 76.9592 67.9803 76.4744 67.0505 75.5019C66.1196 74.533 65.6565 73.2327 65.6565 71.6095ZM67.1585 71.1284C67.1585 72.6879 67.5334 73.9454 68.2821 74.8969C69.0325 75.8483 70.0145 76.3241 71.231 76.3241C72.4085 76.3241 73.3287 75.9199 73.9939 75.114C74.6568 74.3057 74.9873 73.184 74.9873 71.7484C74.9873 70.2004 74.6322 68.9885 73.9177 68.1068C73.2039 67.2287 72.2279 66.7879 70.9862 66.7879C69.7811 66.7879 68.8417 67.1674 68.1669 67.9264C67.4944 68.686 67.1585 69.7529 67.1585 71.1284ZM55.1475 73.93C55.1475 74.4485 55.1601 74.8863 55.1847 75.2453C55.2063 75.602 55.2405 75.845 55.2849 75.9689C55.3119 76.05 55.4001 76.1096 55.547 76.1463C55.6922 76.1829 55.9177 76.1998 56.2249 76.1998H56.4624L56.4552 76.7345C56.2033 76.7194 55.9352 76.7068 55.658 76.6996C55.3779 76.6924 55.0857 76.6905 54.7798 76.6905C54.4415 76.6905 54.132 76.6924 53.8596 76.6996C53.5873 76.7068 53.3491 76.7194 53.1482 76.7345V76.186C53.5555 76.186 53.8326 76.1661 53.9826 76.1294C54.132 76.0897 54.2327 76.0218 54.2843 75.9201C54.3479 75.7902 54.3947 75.5268 54.4289 75.1305C54.4625 74.7341 54.4811 74.1165 54.4853 73.2835L54.5141 67.4251C54.3995 67.241 54.2549 67.1135 54.081 67.0341C53.904 66.9584 53.6263 66.9084 53.2484 66.8838V66.4219C53.5033 66.4321 53.7295 66.4423 53.931 66.4514C54.1344 66.461 54.2987 66.467 54.4289 66.467C54.6352 66.467 54.8482 66.461 55.0713 66.4514C55.2945 66.4423 55.5182 66.4321 55.7438 66.4219C56.1223 66.9704 56.5458 67.5514 57.0119 68.1636C57.4816 68.7759 57.9861 69.4188 58.5337 70.0894L62.6452 75.1142V69.2269C62.6452 68.7073 62.6332 68.2695 62.6086 67.9098C62.587 67.5538 62.5528 67.3102 62.5084 67.1797C62.4868 67.1039 62.398 67.0444 62.2511 67.0077C62.1011 66.9686 61.875 66.9481 61.5684 66.9481H61.3381V66.4219C61.596 66.4369 61.8653 66.4459 62.1461 66.4538C62.4268 66.461 62.7141 66.467 63.0117 66.467C63.3422 66.467 63.6487 66.461 63.9295 66.4514C64.209 66.4423 64.452 66.4321 64.6577 66.4219V66.9632C64.2552 66.9632 63.9781 66.9836 63.8281 67.0233C63.6763 67.0588 63.578 67.1298 63.5294 67.2314C63.458 67.3733 63.4046 67.6596 63.3722 68.0848C63.3374 68.507 63.3206 69.106 63.3206 69.8734L63.2906 75.4498C63.2906 75.8167 63.2936 76.1018 63.2966 76.3087C63.2984 76.5155 63.3014 76.7146 63.3062 76.9065L63.2048 76.9588L62.1131 76.7194C61.62 76.0747 60.818 75.0673 59.7071 73.6931L59.4041 73.325L55.1475 68.0872V73.93ZM41.3093 71.6095C41.3093 70.8078 41.4419 70.0783 41.7095 69.4203C41.9746 68.7612 42.3693 68.1802 42.8966 67.6768C43.3903 67.1993 43.9715 66.8378 44.6392 66.587C45.3062 66.3387 46.0224 66.213 46.7831 66.213C48.4345 66.213 49.747 66.6604 50.7164 67.5565C51.6863 68.4545 52.171 69.6621 52.171 71.1849C52.171 72.0215 52.0444 72.7739 51.7859 73.4456C51.531 74.1144 51.1435 74.7195 50.6276 75.2583C50.0757 75.8243 49.4501 76.2495 48.7512 76.5327C48.0524 76.8148 47.2786 76.9592 46.4322 76.9592C44.8743 76.9592 43.6332 76.4744 42.7034 75.5019C41.7737 74.533 41.3093 73.2327 41.3093 71.6095ZM42.8108 71.1284C42.8108 72.6879 43.1869 73.9454 43.9343 74.8969C44.6854 75.8483 45.6679 76.3241 46.8839 76.3241C48.0626 76.3241 48.9821 75.9199 49.6468 75.114C50.309 74.3057 50.6408 73.184 50.6408 71.7484C50.6408 70.2004 50.2851 68.9885 49.5706 68.1068C48.8568 67.2287 47.8796 66.7879 46.6391 66.7879C45.434 66.7879 44.494 67.1674 43.8198 67.9264C43.1467 68.686 42.8108 69.7529 42.8108 71.1284ZM39.9233 75.3297L40.0877 75.4229L39.6924 76.1885C39.2515 76.4417 38.762 76.6311 38.2251 76.7562C37.69 76.8819 37.0938 76.9445 36.4363 76.9445C35.6733 76.9445 34.9571 76.8236 34.2876 76.5842C33.617 76.3431 33.0357 75.9984 32.5474 75.5534C32.0004 75.0518 31.593 74.4708 31.3231 73.8044C31.0514 73.1405 30.9158 72.3803 30.9158 71.5239C30.9158 69.8868 31.4287 68.5901 32.4575 67.6321C33.485 66.6752 34.8863 66.1983 36.6601 66.1983C37.2629 66.1983 37.8472 66.2494 38.4099 66.3504C38.9707 66.4515 39.5232 66.606 40.0583 66.8183C39.9533 67.1726 39.8717 67.534 39.8153 67.9021C39.7565 68.2696 39.7194 68.6515 39.6996 69.0448H39.3271C39.3025 68.8229 39.2833 68.6142 39.2701 68.4151C39.2557 68.216 39.2431 68.026 39.2341 67.8498C38.8112 67.5112 38.3505 67.2562 37.8526 67.0812C37.3541 66.9068 36.8436 66.8183 36.3211 66.8183C35.1094 66.8183 34.1521 67.1996 33.4526 67.964C32.7538 68.7273 32.4029 69.7719 32.4029 71.0987C32.4029 72.6166 32.8276 73.8363 33.6788 74.7589C34.5306 75.6815 35.6493 76.144 37.0398 76.144C37.5898 76.144 38.1099 76.0748 38.6006 75.9401C39.0889 75.8012 39.5304 75.5973 39.9233 75.3297ZM22.348 76.7345V76.3237C22.6545 76.2377 22.8603 76.1078 22.9683 75.9352C23.0769 75.762 23.1308 75.3543 23.1308 74.7101V67.9201C23.1308 67.4498 23.0613 67.1617 22.9245 67.0589C22.7895 66.9554 22.4344 66.8868 21.8573 66.8484V66.3853C22.2544 66.4045 22.6497 66.4201 23.0421 66.4322C23.4368 66.4442 23.8369 66.449 24.2442 66.449C25.6526 66.449 27.0419 66.4322 28.406 66.3997C28.6364 66.3895 28.7719 66.3853 28.8085 66.3853C28.9921 66.3853 29.1246 66.4171 29.2104 66.4779C29.2986 66.5398 29.34 66.6415 29.34 66.7738C29.34 66.7882 29.3352 66.8448 29.3262 66.9458C29.2746 67.534 29.2476 68.1294 29.2476 68.7344H28.8445C28.8307 68.3411 28.8037 68.0338 28.7611 67.8166C28.7227 67.5977 28.6591 67.4251 28.5728 67.3C28.3472 67.2092 28.0335 67.1431 27.631 67.0979C27.2279 67.057 26.6388 67.0342 25.8614 67.0342C25.4793 67.0342 25.204 67.0372 25.039 67.0444C24.8728 67.051 24.7253 67.0661 24.5951 67.0829C24.5687 67.5069 24.5489 67.7992 24.5387 67.9598C24.5291 68.1222 24.5243 68.2479 24.5243 68.3381V70.8183C24.5243 70.9537 24.5441 71.0391 24.5849 71.0818C24.6275 71.1227 24.7181 71.1437 24.8626 71.1437L26.2441 71.1136C27.0683 71.0926 27.5614 71.0222 27.7234 70.8935C27.8877 70.766 27.9687 70.4978 27.9687 70.0894V69.8091L28.4306 69.817C28.4156 70.2548 28.406 70.5892 28.4036 70.8207C28.4006 71.0541 28.4006 71.2754 28.4006 71.4799C28.4006 71.6736 28.4006 71.8841 28.4036 72.112C28.406 72.3381 28.4156 72.6846 28.4306 73.1446H27.9687C27.9687 73.1056 27.9711 73.0514 27.9765 72.9835C27.9813 72.9131 27.9843 72.8644 27.9843 72.8349C27.9843 72.3965 27.9003 72.112 27.736 71.9797C27.5686 71.8444 27.0761 71.7674 26.2489 71.7487L24.8626 71.7337C24.7181 71.7337 24.6275 71.7523 24.5849 71.7944C24.5441 71.8341 24.5243 71.9226 24.5243 72.0579V76.0579H27.3071C27.8781 76.0579 28.271 76.0309 28.4864 75.9791C28.7005 75.9256 28.8421 75.8336 28.9093 75.7025C28.9675 75.5972 29.0245 75.4168 29.0785 75.1534C29.1324 74.8924 29.184 74.567 29.2332 74.1839H29.6939C29.6549 74.582 29.6279 74.9639 29.6081 75.3296C29.5883 75.6947 29.5793 76.0405 29.5793 76.3671V76.6629C29.3112 76.6924 29.0359 76.7129 28.7593 76.7267C28.4816 76.7411 28.1948 76.7484 27.8979 76.7484C27.6724 76.7484 27.1889 76.7375 26.4481 76.7129C25.7096 76.6906 25.0768 76.6768 24.5537 76.6768C24.132 76.6768 23.4572 76.6954 22.5274 76.7267C22.4458 76.7315 22.387 76.7345 22.348 76.7345ZM12.8672 76.7786C13.2277 75.4988 13.5097 74.3284 13.7184 73.2609C13.9272 72.1928 14.0322 71.4404 14.0322 71.0044C14.0322 70.8895 14.0208 70.8035 13.9956 70.7494C13.9716 70.6928 13.9368 70.6652 13.8876 70.6652C13.7676 70.6652 13.6074 70.7229 13.4047 70.8354C13.2013 70.9484 12.9482 71.118 12.6513 71.3418L12.4863 71.1138C13.0658 70.6363 13.5637 70.279 13.9788 70.0385C14.3933 69.7997 14.7142 69.6788 14.9451 69.6788C15.0261 69.6788 15.0897 69.7083 15.1317 69.7654C15.1761 69.8244 15.1953 69.9074 15.1953 70.018C15.1953 70.2003 15.1557 70.5443 15.0753 71.0543C14.9919 71.5637 14.8809 72.1441 14.7364 72.7912C15.3698 71.6774 15.8971 70.8769 16.3164 70.3921C16.7393 69.9074 17.1166 69.665 17.4454 69.665C17.5041 69.665 17.5551 69.6722 17.6001 69.6818C17.6463 69.6939 17.6883 69.7137 17.7279 69.7366L17.7993 69.8436L17.5269 71.2413L17.404 71.2708C17.323 71.2034 17.239 71.1529 17.1556 71.118C17.0728 71.0861 16.9889 71.0681 16.9079 71.0681C16.3314 71.0681 15.7813 71.5685 15.2565 72.5639C14.7346 73.5604 14.3051 74.9316 13.974 76.6703C13.7778 76.6998 13.6015 76.7299 13.4383 76.7618C13.2793 76.7912 13.1342 76.8255 13.0046 76.8652L12.8672 76.7786ZM9.29446 70.1046C9.74075 70.1046 10.0779 70.2646 10.3058 70.5846C10.5332 70.9051 10.6465 71.3766 10.6465 72.0015C10.6465 73.3836 10.445 74.4733 10.0455 75.2732C9.64538 76.0701 9.10071 76.4689 8.40848 76.4689C7.98198 76.4689 7.65744 76.2993 7.43249 75.9577C7.20695 75.616 7.09357 75.1229 7.09357 74.4788C7.09357 73.8533 7.16437 73.2404 7.30474 72.6408C7.4475 72.0406 7.64844 71.4987 7.90578 71.0194C8.07014 70.7265 8.2711 70.501 8.50925 70.3434C8.75039 70.1834 9.01252 70.1046 9.29446 70.1046ZM5.99404 74.5654C5.99404 75.3484 6.1638 75.9444 6.50512 76.3558C6.84584 76.7666 7.33653 76.9729 7.97958 76.9729C9.04733 76.9729 9.9369 76.5098 10.6513 75.5836C11.3646 74.6556 11.7239 73.4756 11.7239 72.0436C11.7239 71.2215 11.5613 70.6195 11.2356 70.2382C10.9087 69.8563 10.3982 69.665 9.70476 69.665C8.649 69.665 7.76843 70.1275 7.05879 71.0519C6.35036 71.9769 5.99404 73.1478 5.99404 74.5654ZM3.32982 70.9181H3.07727C2.9297 70.9181 2.78515 70.9235 2.64478 70.9331C2.50801 70.9433 2.36584 70.9584 2.22307 70.9752V70.7473C2.35564 70.6925 2.66756 70.559 3.15525 70.3479L3.43059 70.2246C3.53617 69.4825 3.64895 68.9189 3.76712 68.54C3.88709 68.1587 4.04186 67.8496 4.22782 67.6102C4.61593 67.1285 5.03822 66.7322 5.49172 66.417C5.94761 66.1025 6.32071 65.9443 6.61524 65.9443C6.71842 65.9443 6.81859 65.9593 6.90977 65.9894C7.00035 66.0159 7.08914 66.061 7.17432 66.1175C7.10353 66.2919 7.03515 66.4814 6.97337 66.6907C6.91218 66.8988 6.848 67.1453 6.78742 67.4232L6.64164 67.3444C6.56606 67.1904 6.46589 67.072 6.34472 66.9854C6.22234 66.9018 6.08258 66.8597 5.92361 66.8597C5.5697 66.8597 5.29976 67.0004 5.1162 67.2807C4.93204 67.5639 4.77968 68.1022 4.6669 68.8991L4.47795 70.2547C4.76289 70.2547 5.04002 70.2457 5.31296 70.2246C5.58709 70.206 5.86242 70.1777 6.13896 70.1392L5.92361 70.9181H4.35797L4.15463 72.3085C3.64654 75.7872 3.16065 78.0479 2.69636 79.0884C2.23087 80.1288 1.58542 80.6484 0.75641 80.6484C0.620842 80.6484 0.49547 80.6412 0.377897 80.6268C0.260924 80.6118 0.149943 80.5895 0.0443676 80.5552L0 80.4391L0.402503 79.3794L0.589058 79.3301C0.714429 79.5118 0.846991 79.6495 0.984359 79.7397C1.12353 79.8323 1.2735 79.878 1.43007 79.878C2.04372 79.878 2.58898 77.7015 3.06227 73.3478C3.17264 72.3085 3.26084 71.4984 3.32982 70.9181Z" fill="#094562"/>
</svg>
