<svg width="259" height="64" viewBox="0 0 259 64" fill="none" xmlns="http://www.w3.org/2000/svg">
<path d="M172.987 20.0101C171.007 19.3558 169.027 18.667 166.737 18.667C163.034 18.667 159.831 20.9055 159.831 25.0899C159.831 32.4943 171.386 30.3418 171.386 35.9554C171.386 38.4522 168.889 39.7437 166.685 39.7437C162.466 39.7437 160.572 36.472 160.52 32.4598H159.229V39.4854C161.64 40.3464 164.05 40.8285 166.599 40.8285C170.439 40.8285 174.744 38.6761 174.744 34.2851C174.744 25.4515 162.931 28.3444 162.931 22.9891C162.931 20.9227 164.567 20.0101 166.513 20.0101C170.301 20.0101 171.42 22.6791 171.937 25.6065H172.97V20.0101H172.987ZM153.03 20.0101C151.05 19.3558 149.069 18.667 146.796 18.667C143.094 18.667 139.891 20.9055 139.891 25.0899C139.891 32.4943 151.446 30.3418 151.446 35.9554C151.446 38.4522 148.949 39.7437 146.745 39.7437C142.526 39.7437 140.632 36.472 140.58 32.4598H139.289V39.4854C141.699 40.3464 144.11 40.8285 146.659 40.8285C150.499 40.8285 154.803 38.6761 154.803 34.2851C154.803 25.4515 142.991 28.3444 142.991 22.9891C142.991 20.9227 144.627 20.0101 146.572 20.0101C150.361 20.0101 151.48 22.6791 151.997 25.6065H153.03V20.0101ZM120.02 27.0701C120.02 24.4011 120.967 19.7518 124.669 19.7518C129.06 19.7518 129.232 23.9706 129.232 27.0701H120.003H120.02ZM134.415 28.4132C134.415 22.6275 130.662 18.667 125.151 18.667C118.866 18.667 115.112 23.9189 115.112 29.7391C115.112 35.5593 118.384 40.8113 124.859 40.8113C129.594 40.8113 132.539 39.296 134.381 34.3023L133.434 33.9579C132.315 37.0574 130.334 39.4682 126.408 39.4682C120.847 39.4682 120.037 34.7672 120.037 28.7404V28.396H134.433L134.415 28.4132ZM98.0823 39.2271H94.3801V40.3119H106.055V39.2271H102.473V29.7908C102.473 25.1415 105.022 20.2167 107.26 20.2167C107.915 20.2167 108.345 20.6989 108.345 21.2844C108.345 21.8526 108.139 22.8858 108.139 23.4885C108.139 24.8316 109.12 25.6926 110.291 25.6926C111.841 25.6926 112.53 24.5216 112.53 22.7997C112.53 20.3028 111.152 18.667 108.603 18.667C105.332 18.667 103.472 21.646 102.577 24.1428H102.491V19.1836H94.3801V20.2684H98.0823V39.2271ZM83.7385 39.6576C88.0434 39.6576 90.1958 40.1742 90.1958 43.5836C90.1958 46.9931 85.9254 48.4567 81.9649 48.4567C77.5739 48.4567 74.4572 47.458 74.4572 43.9797C74.4572 39.9675 77.6944 39.6748 83.7213 39.6748M77.7461 25.0038C77.7461 22.3347 78.0044 19.7518 81.1556 19.7518C84.3067 19.7518 84.3067 23.1096 84.3067 25.572C84.3067 27.8622 84.0484 31.0823 80.9834 31.0823C77.9183 31.0823 77.7461 27.294 77.7461 25.0038ZM75.542 39.6059C73.4757 40.002 71.3577 41.2418 71.3577 43.7386C71.3577 48.8184 77.7289 49.7654 81.4483 49.7654C86.4075 49.7654 91.7456 47.9574 91.7456 42.0167C91.7456 36.9713 88.7666 35.2494 84.2895 35.2494C81.741 35.2494 79.2959 35.4216 76.7818 35.4216C74.2678 35.4216 73.0279 35.1116 73.0279 33.5274C73.0279 32.0638 74.836 30.8928 76.093 30.8067C77.5567 31.6677 79.3303 32.1499 81.0867 32.1499C85.1849 32.1499 88.4222 29.4808 88.4222 25.2621C88.4222 23.8328 88.0778 22.7136 87.3374 21.5082C87.4235 20.9916 88.1122 20.2167 88.6288 20.2167C90.1441 20.2167 88.6633 23.058 90.9535 23.058C91.935 23.058 92.3827 22.2314 92.3827 21.1638C92.3999 19.528 91.1084 18.667 89.817 18.667C88.3017 18.667 87.3546 19.4419 86.6314 20.4406C85.116 19.0975 82.9636 18.667 80.6734 18.667C77.0057 18.667 73.6134 21.1294 73.6134 25.176C73.6134 27.0701 73.9578 28.1894 75.1287 29.7391C73.0107 30.514 71.2543 32.0638 71.2543 34.6123C71.2543 37.1607 72.9418 38.9688 75.5592 39.5715V39.6231L75.542 39.6059ZM29.4798 39.2271H25.7776V40.3119H37.4524V39.2271H33.8708V29.7908C33.8708 25.1415 36.4193 20.2167 38.6578 20.2167C39.3121 20.2167 39.7426 20.6989 39.7426 21.2844C39.7426 21.8526 39.536 22.8858 39.536 23.4885C39.536 24.8316 40.5347 25.6926 41.6884 25.6926C43.2382 25.6926 43.927 24.5216 43.927 22.7997C43.9098 20.3028 42.5322 18.667 40.0009 18.667C36.7292 18.667 34.8695 21.646 33.9741 24.1428H33.888V19.1836H25.7776V20.2684H29.4798V39.2271ZM8.11039 27.7245C8.11039 21.336 11.2443 20.0101 13.1901 20.0101C17.2367 20.0101 18.0633 24.2289 18.0633 29.7564C18.0633 35.9209 16.6857 39.5026 13.1901 39.5026C8.83361 39.5026 8.11039 35.0255 8.11039 31.2717V27.7417V27.7245ZM0 49.7826H11.9331V48.6978H8.23093V37.8323H8.31702C9.2641 39.8987 11.4165 40.8113 13.8789 40.8113C20.5601 40.8974 22.7125 35.5938 22.7125 29.7391C22.7125 21.8182 19.1309 18.667 14.5677 18.667C11.7265 18.667 9.60849 19.6141 8.31702 22.3347H8.23093V19.1836H0.206634V20.2684H3.82273V48.715H0V49.7999V49.7826Z" fill="white"/>
<path d="M258.706 61.2165V49.8516H256.915V56.6017L254.246 49.8516H252.645V61.2165H254.436V54.4665L257.122 61.2165H258.706ZM238.869 55.5341C238.869 57.6176 238.818 58.7541 238.49 59.3051C238.335 59.5634 238.06 59.7356 237.629 59.7356C237.199 59.7356 236.941 59.5634 236.786 59.3051C236.441 58.7541 236.39 57.6176 236.39 55.5341C236.39 53.4505 236.458 52.314 236.786 51.763C236.941 51.5047 237.199 51.3325 237.629 51.3325C238.06 51.3325 238.335 51.5047 238.49 51.763C238.818 52.2968 238.869 53.4505 238.869 55.5341ZM240.66 55.5341C240.66 52.8306 240.591 51.5908 239.833 50.6954C239.369 50.1444 238.68 49.7139 237.629 49.7139C236.579 49.7139 235.89 50.1271 235.425 50.6954C234.668 51.608 234.599 52.8306 234.599 55.5341C234.599 58.2375 234.685 59.4601 235.425 60.3727C235.89 60.9238 236.579 61.337 237.629 61.337C238.68 61.337 239.369 60.9238 239.833 60.3727C240.591 59.4773 240.66 58.2375 240.66 55.5341ZM222.614 49.8516H220.823V61.2165H222.614V49.8516ZM209.148 51.453V49.8516H203.552V51.453H205.446V61.1993H207.237V51.453H209.148ZM190.723 57.3593H188.778L189.759 52.6067L190.741 57.3593H190.723ZM193.375 61.2165L190.62 49.8516H188.881L186.091 61.2165H187.968L188.416 58.9607H191.051L191.516 61.2165H193.375ZM173.28 55.5168C173.28 57.4971 173.246 58.6164 172.901 59.1329C172.729 59.4085 172.419 59.5979 171.989 59.5979H170.938V51.453H171.989C172.419 51.453 172.729 51.6425 172.901 51.918C173.263 52.4518 173.28 53.5366 173.28 55.5168ZM175.054 55.5168C175.054 52.8995 174.985 51.6425 174.227 50.7987C173.762 50.2649 173.108 49.8516 172.023 49.8516H169.13V61.2165H172.023C173.108 61.2165 173.762 60.8032 174.227 60.2694C174.985 59.4257 175.054 58.1342 175.054 55.5168ZM156.853 61.2165V49.8516H155.062V56.6017L152.393 49.8516H150.791V61.2165H152.582V54.4665L155.268 61.2165H156.853ZM138.6 58.4269V49.8516H136.809V58.513C136.809 59.3224 136.31 59.7356 135.707 59.7356C135.104 59.7356 134.588 59.3396 134.588 58.513V49.8516H132.797V58.4269C132.797 59.2879 133.09 60.0111 133.572 60.5105C134.123 61.0615 134.846 61.337 135.69 61.337C136.534 61.337 137.257 61.0615 137.791 60.5105C138.29 59.9939 138.566 59.2879 138.566 58.4269M119.125 55.5341C119.125 57.6176 119.073 58.7541 118.746 59.3051C118.591 59.5634 118.315 59.7356 117.885 59.7356C117.454 59.7356 117.196 59.5634 117.041 59.3051C116.697 58.7541 116.645 57.6176 116.645 55.5341C116.645 53.4505 116.714 52.314 117.041 51.763C117.196 51.5047 117.454 51.3325 117.885 51.3325C118.315 51.3325 118.591 51.5047 118.746 51.763C119.09 52.2968 119.125 53.4505 119.125 55.5341ZM120.916 55.5341C120.916 52.8306 120.847 51.5908 120.089 50.6954C119.624 50.1444 118.935 49.7139 117.885 49.7139C116.835 49.7139 116.146 50.1271 115.681 50.6954C114.923 51.608 114.854 52.8306 114.854 55.5341C114.854 58.2375 114.94 59.4601 115.681 60.3727C116.146 60.9238 116.835 61.337 117.885 61.337C118.935 61.337 119.624 60.9238 120.089 60.3727C120.847 59.4773 120.916 58.2375 120.916 55.5341ZM103.248 51.453V49.8516H98.4785V61.2165H100.269V56.2917H102.835V54.6903H100.269V51.4703H103.248V51.453Z" fill="#ABBEBA"/>
<path d="M57.6857 40.8802C63.8158 40.8802 68.7923 35.9037 68.7923 29.7736C68.7923 23.6434 63.8158 18.667 57.6857 18.667C51.5555 18.667 46.5791 23.6434 46.5791 29.7736C46.5791 35.9037 51.5555 40.8802 57.6857 40.8802Z" fill="#ABBEBA"/>
</svg>
