<svg width="201" height="33" viewBox="0 0 201 33" fill="none" xmlns="http://www.w3.org/2000/svg">
<path d="M133.784 1.03874C132.253 0.532687 130.721 0 128.95 0C126.087 0 123.61 1.73123 123.61 4.96731C123.61 10.6937 132.546 9.02905 132.546 13.3704C132.546 15.3014 130.615 16.3002 128.91 16.3002C125.648 16.3002 124.183 13.77 124.143 10.6671H123.144V16.1005C125.008 16.7663 126.873 17.1392 128.844 17.1392C131.813 17.1392 135.143 15.4746 135.143 12.0787C135.143 5.24697 126.007 7.48425 126.007 3.34261C126.007 1.74455 127.272 1.03874 128.777 1.03874C131.707 1.03874 132.572 3.1029 132.972 5.36682H133.771V1.03874H133.784ZM118.35 1.03874C116.818 0.532687 115.287 0 113.529 0C110.666 0 108.189 1.73123 108.189 4.96731C108.189 10.6937 117.125 9.02905 117.125 13.3704C117.125 15.3014 115.194 16.3002 113.489 16.3002C110.226 16.3002 108.761 13.77 108.721 10.6671H107.723V16.1005C109.587 16.7663 111.451 17.1392 113.422 17.1392C116.392 17.1392 119.721 15.4746 119.721 12.0787C119.721 5.24697 110.586 7.48425 110.586 3.34261C110.586 1.74455 111.851 1.03874 113.356 1.03874C116.286 1.03874 117.151 3.1029 117.551 5.36682H118.35V1.03874ZM92.8207 6.49878C92.8207 4.43462 93.5532 0.838982 96.4163 0.838982C99.8122 0.838982 99.9454 4.10169 99.9454 6.49878H92.8074H92.8207ZM103.954 7.53752C103.954 3.06295 101.051 0 96.7892 0C91.9285 0 89.0253 4.06174 89.0253 8.56294C89.0253 13.0642 91.5556 17.1259 96.5628 17.1259C100.225 17.1259 102.502 15.954 103.927 12.092L103.195 11.8257C102.329 14.2227 100.798 16.0872 97.7614 16.0872C93.4599 16.0872 92.834 12.4516 92.834 7.79055V7.52421H103.967L103.954 7.53752ZM75.8546 15.9007H72.9914V16.7397H82.0205V15.9007H79.2505V8.6029C79.2505 5.00726 81.2215 1.19855 82.9527 1.19855C83.4587 1.19855 83.7917 1.57143 83.7917 2.02421C83.7917 2.46368 83.6319 3.26271 83.6319 3.72881C83.6319 4.76755 84.3909 5.43341 85.2965 5.43341C86.4951 5.43341 87.0277 4.52784 87.0277 3.19612C87.0277 1.26513 85.9624 0 83.9914 0C81.4612 0 80.0229 2.30387 79.3304 4.23486H79.2638V0.399515H72.9914V1.2385H75.8546V15.9007ZM64.7614 16.2336C68.0907 16.2336 69.7554 16.6332 69.7554 19.27C69.7554 21.9068 66.4527 23.0387 63.3898 23.0387C59.9939 23.0387 57.5835 22.2663 57.5835 19.5763C57.5835 16.4733 60.0871 16.247 64.7481 16.247M60.127 4.90072C60.127 2.83656 60.3268 0.838982 62.7638 0.838982C65.2009 0.838982 65.2009 3.43583 65.2009 5.34019C65.2009 7.11137 65.0011 9.60168 62.6307 9.60168C60.2602 9.60168 60.127 6.67191 60.127 4.90072ZM58.4224 16.1937C56.8244 16.5 55.1864 17.4588 55.1864 19.3898C55.1864 23.3184 60.1137 24.0508 62.9902 24.0508C66.8256 24.0508 70.9539 22.6525 70.9539 18.0581C70.9539 14.1562 68.65 12.8244 65.1876 12.8244C63.2166 12.8244 61.3256 12.9576 59.3813 12.9576C57.437 12.9576 56.4781 12.7179 56.4781 11.4927C56.4781 10.3608 57.8764 9.4552 58.8486 9.38861C59.9806 10.0545 61.3522 10.4273 62.7106 10.4273C65.8801 10.4273 68.3837 8.36319 68.3837 5.10048C68.3837 3.99515 68.1174 3.12954 67.5447 2.19733C67.6113 1.79782 68.144 1.19855 68.5435 1.19855C69.7154 1.19855 68.5701 3.39588 70.3413 3.39588C71.1004 3.39588 71.4466 2.75666 71.4466 1.93099C71.46 0.665859 70.4612 0 69.4624 0C68.2905 0 67.558 0.599273 66.9987 1.37167C65.8268 0.332929 64.1621 0 62.391 0C59.5544 0 56.9309 1.90436 56.9309 5.03389C56.9309 6.49878 57.1973 7.3644 58.1028 8.56294C56.4648 9.16222 55.1065 10.3608 55.1065 12.3317C55.1065 14.3026 56.4116 15.701 58.4358 16.1671V16.207L58.4224 16.1937ZM22.799 15.9007H19.9358V16.7397H28.9649V15.9007H26.1949V8.6029C26.1949 5.00726 28.1658 1.19855 29.8971 1.19855C30.4031 1.19855 30.736 1.57143 30.736 2.02421C30.736 2.46368 30.5762 3.26271 30.5762 3.72881C30.5762 4.76755 31.3486 5.43341 32.2409 5.43341C33.4394 5.43341 33.9721 4.52784 33.9721 3.19612C33.9588 1.26513 32.8934 0 30.9358 0C28.4055 0 26.9673 2.30387 26.2748 4.23486H26.2082V0.399515H19.9358V1.2385H22.799V15.9007ZM6.27239 7.00484C6.27239 2.06416 8.69612 1.03874 10.201 1.03874C13.3305 1.03874 13.9697 4.30145 13.9697 8.57626C13.9697 13.3438 12.9043 16.1138 10.201 16.1138C6.83171 16.1138 6.27239 12.6513 6.27239 9.74817V7.01815V7.00484ZM0 24.0641H9.2288V23.2252H6.36561V14.822H6.4322C7.16464 16.4201 8.82929 17.1259 10.7336 17.1259C15.9007 17.1925 17.5654 13.0908 17.5654 8.56294C17.5654 2.43704 14.7954 0 11.2663 0C9.069 0 7.43098 0.732445 6.4322 2.83656H6.36561V0.399515H0.159806V1.2385H2.95641V23.2385H0V24.0775V24.0641Z" fill="#007964"/>
<path d="M200.077 32.9067V24.1174H198.692V29.3377L196.628 24.1174H195.39V32.9067H196.775V27.6864L198.852 32.9067H200.077ZM184.736 28.5121C184.736 30.1234 184.696 31.0024 184.443 31.4285C184.323 31.6283 184.11 31.7615 183.777 31.7615C183.444 31.7615 183.245 31.6283 183.125 31.4285C182.858 31.0024 182.818 30.1234 182.818 28.5121C182.818 26.9007 182.872 26.0218 183.125 25.5956C183.245 25.3958 183.444 25.2627 183.777 25.2627C184.11 25.2627 184.323 25.3958 184.443 25.5956C184.696 26.0084 184.736 26.9007 184.736 28.5121ZM186.121 28.5121C186.121 26.4213 186.068 25.4624 185.482 24.7699C185.122 24.3438 184.59 24.0109 183.777 24.0109C182.965 24.0109 182.432 24.3305 182.073 24.7699C181.487 25.4758 181.433 26.4213 181.433 28.5121C181.433 30.6029 181.5 31.5484 182.073 32.2542C182.432 32.6803 182.965 33 183.777 33C184.59 33 185.122 32.6803 185.482 32.2542C186.068 31.5617 186.121 30.6029 186.121 28.5121ZM172.165 24.1174H170.78V32.9067H172.165V24.1174ZM161.751 25.3559V24.1174H157.423V25.3559H158.887V32.8934H160.272V25.3559H161.751ZM147.501 29.9237H145.996L146.755 26.2481L147.515 29.9237H147.501ZM149.552 32.9067L147.421 24.1174H146.076L143.919 32.9067H145.371L145.717 31.1622H147.754L148.114 32.9067H149.552ZM134.011 28.4988C134.011 30.0302 133.984 30.8958 133.718 31.2954C133.585 31.5084 133.345 31.6549 133.012 31.6549H132.2V25.3559H133.012C133.345 25.3559 133.585 25.5024 133.718 25.7155C133.998 26.1283 134.011 26.9673 134.011 28.4988ZM135.383 28.4988C135.383 26.4745 135.329 25.5024 134.743 24.8498C134.384 24.437 133.878 24.1174 133.039 24.1174H130.802V32.9067H133.039C133.878 32.9067 134.384 32.5871 134.743 32.1743C135.329 31.5218 135.383 30.523 135.383 28.4988ZM121.306 32.9067V24.1174H119.921V29.3377L117.857 24.1174H116.619V32.9067H118.004V27.6864L120.081 32.9067H121.306ZM107.19 30.7494V24.1174H105.805V30.8159C105.805 31.4418 105.419 31.7615 104.953 31.7615C104.487 31.7615 104.087 31.4552 104.087 30.8159V24.1174H102.702V30.7494C102.702 31.4152 102.929 31.9745 103.302 32.3607C103.728 32.7869 104.287 33 104.94 33C105.592 33 106.151 32.7869 106.564 32.3607C106.95 31.9612 107.164 31.4152 107.164 30.7494M92.1284 28.5121C92.1284 30.1234 92.0885 31.0024 91.8355 31.4285C91.7156 31.6283 91.5025 31.7615 91.1696 31.7615C90.8367 31.7615 90.6369 31.6283 90.5171 31.4285C90.2507 31.0024 90.2108 30.1234 90.2108 28.5121C90.2108 26.9007 90.264 26.0218 90.5171 25.5956C90.6369 25.3958 90.8367 25.2627 91.1696 25.2627C91.5025 25.2627 91.7156 25.3958 91.8355 25.5956C92.1018 26.0084 92.1284 26.9007 92.1284 28.5121ZM93.5134 28.5121C93.5134 26.4213 93.4601 25.4624 92.8742 24.7699C92.5146 24.3438 91.9819 24.0109 91.1696 24.0109C90.3572 24.0109 89.8246 24.3305 89.465 24.7699C88.879 25.4758 88.8258 26.4213 88.8258 28.5121C88.8258 30.6029 88.8924 31.5484 89.465 32.2542C89.8246 32.6803 90.3572 33 91.1696 33C91.9819 33 92.5146 32.6803 92.8742 32.2542C93.4601 31.5617 93.5134 30.6029 93.5134 28.5121ZM79.85 25.3559V24.1174H76.1611V32.9067H77.5461V29.098H79.5304V27.8595H77.5461V25.3692H79.85V25.3559Z" fill="#D0D0D0"/>
<path d="M44.613 17.179C49.3539 17.179 53.2026 13.3304 53.2026 8.58946C53.2026 3.84854 49.3539 -0.00012207 44.613 -0.00012207C39.8721 -0.00012207 36.0234 3.84854 36.0234 8.58946C36.0234 13.3304 39.8721 17.179 44.613 17.179Z" fill="#D0D0D0"/>
</svg>
